<svg width="854" height="599" viewBox="0 0 854 599" fill="none" xmlns="http://www.w3.org/2000/svg">
<rect x="49" y="92" width="734" height="507" rx="74" fill="#FEFEFE"/>
<rect x="86" y="185" width="191" height="46" rx="12" fill="url(#paint0_linear_229_4)"/>
<rect x="86" y="286" width="650" height="266" rx="43" fill="url(#paint1_linear_229_4)"/>
<rect opacity="0.73" x="610" y="233" width="134" height="35" rx="17.5" fill="#E2F2E2"/>
<rect opacity="0.73" x="601" y="358" width="122" height="27" rx="10" fill="#D9EED8"/>
<rect opacity="0.73" x="601" y="410" width="122" height="27" rx="10" fill="#D9EED8"/>
<rect opacity="0.73" x="601" y="457" width="122" height="27" rx="10" fill="#FDF0CC"/>
<rect x="138" y="363" width="108" height="9" rx="4.5" fill="#E6E6E6"/>
<rect x="138" y="377" width="86" height="9" rx="4.5" fill="#E6E6E6"/>
<rect x="269" y="363" width="108" height="9" rx="4.5" fill="#E6E6E6"/>
<rect x="269" y="377" width="46" height="9" rx="4.5" fill="#E6E6E6"/>
<rect x="436" y="363" width="108" height="9" rx="4.5" fill="#E6E6E6"/>
<rect x="436" y="377" width="62" height="9" rx="4.5" fill="#E6E6E6"/>
<rect x="138" y="410" width="108" height="9" rx="4.5" fill="#E6E6E6"/>
<rect x="138" y="424" width="63" height="9" rx="4.5" fill="#E6E6E6"/>
<rect x="269" y="410" width="108" height="9" rx="4.5" fill="#E6E6E6"/>
<rect x="269" y="424" width="37" height="9" rx="4.5" fill="#E6E6E6"/>
<rect x="436" y="410" width="108" height="9" rx="4.5" fill="#E6E6E6"/>
<rect x="436" y="424" width="92" height="9" rx="4.5" fill="#E6E6E6"/>
<rect x="138" y="457" width="108" height="9" rx="4.5" fill="#E6E6E6"/>
<rect x="138" y="471" width="78" height="9" rx="4.5" fill="#E6E6E6"/>
<rect x="269" y="457" width="108" height="9" rx="4.5" fill="#E6E6E6"/>
<rect x="269" y="471" width="78" height="9" rx="4.5" fill="#E6E6E6"/>
<rect x="436" y="457" width="108" height="9" rx="4.5" fill="#E6E6E6"/>
<rect x="436" y="471" width="43" height="9" rx="4.5" fill="#E6E6E6"/>
<g filter="url(#filter0_i_229_4)">
<circle cx="415.5" cy="90.5" r="90.5" fill="white"/>
</g>
<circle cx="415.5" cy="90.5001" r="71.2447" fill="#FDD7C9"/>
<path d="M433.74 94.8095C435.734 94.8095 437.646 95.6014 439.055 97.011C440.465 98.4207 441.257 100.333 441.257 102.326V104.118C441.257 113.08 430.709 119.865 416.202 119.865C401.695 119.865 391.146 113.433 391.146 104.118V102.326C391.146 100.333 391.938 98.4207 393.348 97.011C394.757 95.6014 396.669 94.8095 398.663 94.8095H433.74ZM416.202 59.7319C418.176 59.7319 420.131 60.1208 421.955 60.8763C423.778 61.6318 425.436 62.7391 426.832 64.1351C428.228 65.531 429.335 67.1883 430.09 69.0122C430.846 70.8361 431.235 72.791 431.235 74.7652C431.235 76.7393 430.846 78.6942 430.09 80.5181C429.335 82.342 428.228 83.9993 426.832 85.3952C425.436 86.7912 423.778 87.8986 421.955 88.654C420.131 89.4095 418.176 89.7984 416.202 89.7984C412.215 89.7984 408.391 88.2145 405.572 85.3952C402.752 82.576 401.168 78.7522 401.168 74.7652C401.168 70.7781 402.752 66.9543 405.572 64.1351C408.391 61.3158 412.215 59.7319 416.202 59.7319Z" fill="#B2978D"/>
<path d="M118.26 213.2C117.807 213.2 117.38 213.14 116.98 213.02C116.58 212.913 116.207 212.753 115.86 212.54C115.513 212.313 115.2 212.04 114.92 211.72C114.64 211.4 114.393 211.047 114.18 210.66L115.22 209.58C115.46 209.98 115.7 210.313 115.94 210.58C116.193 210.847 116.44 211.06 116.68 211.22C116.933 211.38 117.187 211.493 117.44 211.56C117.707 211.627 117.98 211.66 118.26 211.66C118.807 211.66 119.287 211.533 119.7 211.28C120.127 211.013 120.453 210.653 120.68 210.2C120.92 209.733 121.04 209.207 121.04 208.62V200.48H118.5V199H124.7V200.48H122.64V208.74C122.64 209.38 122.533 209.973 122.32 210.52C122.107 211.067 121.807 211.54 121.42 211.94C121.033 212.34 120.573 212.653 120.04 212.88C119.507 213.093 118.913 213.2 118.26 213.2ZM130.721 213.2C129.681 213.2 128.754 212.967 127.941 212.5C127.141 212.033 126.507 211.387 126.041 210.56C125.587 209.733 125.361 208.793 125.361 207.74C125.361 206.7 125.587 205.773 126.041 204.96C126.507 204.147 127.141 203.507 127.941 203.04C128.754 202.573 129.681 202.34 130.721 202.34C131.747 202.34 132.661 202.573 133.461 203.04C134.274 203.507 134.907 204.147 135.361 204.96C135.827 205.773 136.061 206.7 136.061 207.74C136.061 208.793 135.827 209.733 135.361 210.56C134.907 211.387 134.274 212.033 133.461 212.5C132.661 212.967 131.747 213.2 130.721 213.2ZM130.721 211.78C131.454 211.78 132.107 211.607 132.681 211.26C133.254 210.9 133.701 210.42 134.021 209.82C134.341 209.207 134.501 208.513 134.501 207.74C134.501 206.967 134.341 206.28 134.021 205.68C133.701 205.08 133.254 204.613 132.681 204.28C132.107 203.933 131.454 203.76 130.721 203.76C129.987 203.76 129.327 203.933 128.741 204.28C128.167 204.613 127.714 205.087 127.381 205.7C127.061 206.3 126.907 206.98 126.921 207.74C126.907 208.513 127.061 209.207 127.381 209.82C127.714 210.42 128.167 210.9 128.741 211.26C129.327 211.607 129.987 211.78 130.721 211.78ZM143.549 213.2C143.056 213.2 142.576 213.127 142.109 212.98C141.642 212.82 141.216 212.607 140.829 212.34C140.456 212.073 140.136 211.767 139.869 211.42C139.616 211.073 139.442 210.713 139.349 210.34L139.789 210.36L139.729 212.98H138.249V198.2H139.749V205.06L139.449 205.14C139.542 204.767 139.709 204.413 139.949 204.08C140.202 203.733 140.516 203.433 140.889 203.18C141.262 202.913 141.669 202.707 142.109 202.56C142.562 202.413 143.029 202.34 143.509 202.34C144.442 202.34 145.276 202.573 146.009 203.04C146.756 203.507 147.349 204.147 147.789 204.96C148.229 205.773 148.449 206.707 148.449 207.76C148.449 208.813 148.236 209.753 147.809 210.58C147.382 211.393 146.796 212.033 146.049 212.5C145.316 212.967 144.482 213.2 143.549 213.2ZM143.309 211.78C144.016 211.78 144.642 211.607 145.189 211.26C145.736 210.9 146.162 210.42 146.469 209.82C146.789 209.207 146.949 208.52 146.949 207.76C146.949 206.987 146.789 206.3 146.469 205.7C146.162 205.1 145.736 204.627 145.189 204.28C144.642 203.933 144.016 203.76 143.309 203.76C142.602 203.76 141.976 203.933 141.429 204.28C140.882 204.627 140.449 205.1 140.129 205.7C139.822 206.3 139.669 206.987 139.669 207.76C139.669 208.533 139.822 209.227 140.129 209.84C140.449 210.44 140.882 210.913 141.429 211.26C141.976 211.607 142.602 211.78 143.309 211.78ZM162.617 213.2C161.631 213.2 160.717 213.027 159.877 212.68C159.051 212.32 158.324 211.82 157.697 211.18C157.084 210.54 156.604 209.787 156.257 208.92C155.924 208.04 155.757 207.08 155.757 206.04C155.757 205 155.924 204.047 156.257 203.18C156.604 202.3 157.084 201.54 157.697 200.9C158.324 200.247 159.051 199.747 159.877 199.4C160.717 199.04 161.631 198.86 162.617 198.86C163.617 198.86 164.531 199.04 165.357 199.4C166.197 199.747 166.924 200.247 167.537 200.9C168.164 201.54 168.644 202.3 168.977 203.18C169.324 204.047 169.497 205 169.497 206.04C169.497 207.067 169.324 208.02 168.977 208.9C168.644 209.767 168.164 210.527 167.537 211.18C166.924 211.82 166.197 212.32 165.357 212.68C164.531 213.027 163.617 213.2 162.617 213.2ZM162.617 211.66C163.377 211.66 164.077 211.527 164.717 211.26C165.371 210.98 165.931 210.587 166.397 210.08C166.864 209.573 167.224 208.98 167.477 208.3C167.744 207.607 167.877 206.853 167.877 206.04C167.877 205.213 167.744 204.46 167.477 203.78C167.224 203.087 166.864 202.487 166.397 201.98C165.931 201.473 165.371 201.08 164.717 200.8C164.077 200.52 163.377 200.38 162.617 200.38C161.857 200.38 161.151 200.52 160.497 200.8C159.857 201.08 159.304 201.473 158.837 201.98C158.371 202.487 158.011 203.087 157.757 203.78C157.504 204.46 157.377 205.213 157.377 206.04C157.377 206.853 157.504 207.607 157.757 208.3C158.011 208.98 158.371 209.573 158.837 210.08C159.304 210.587 159.857 210.98 160.497 211.26C161.151 211.527 161.857 211.66 162.617 211.66ZM175.18 213L170.78 202.56H172.44L175.92 211.1L175.52 211.32L179.34 202.56H180.94L176.26 213H175.18ZM187.009 213.2C185.969 213.2 185.043 212.973 184.229 212.52C183.429 212.067 182.803 211.433 182.349 210.62C181.896 209.807 181.669 208.873 181.669 207.82C181.669 207.007 181.796 206.273 182.049 205.62C182.303 204.953 182.656 204.373 183.109 203.88C183.576 203.387 184.129 203.007 184.769 202.74C185.409 202.46 186.103 202.32 186.849 202.32C187.556 202.32 188.196 202.447 188.769 202.7C189.356 202.953 189.856 203.307 190.269 203.76C190.696 204.2 191.016 204.727 191.229 205.34C191.443 205.953 191.536 206.627 191.509 207.36L191.489 208.06H182.789L182.569 206.8H190.349L189.989 207.14V206.66C189.963 206.18 189.823 205.72 189.569 205.28C189.316 204.827 188.956 204.46 188.489 204.18C188.036 203.9 187.489 203.76 186.849 203.76C186.103 203.76 185.456 203.913 184.909 204.22C184.363 204.513 183.943 204.953 183.649 205.54C183.356 206.127 183.209 206.853 183.209 207.72C183.209 208.547 183.369 209.267 183.689 209.88C184.009 210.48 184.463 210.947 185.049 211.28C185.649 211.613 186.369 211.78 187.209 211.78C187.703 211.78 188.189 211.7 188.669 211.54C189.163 211.367 189.703 211.033 190.289 210.54L191.069 211.62C190.763 211.927 190.396 212.2 189.969 212.44C189.543 212.667 189.076 212.853 188.569 213C188.063 213.133 187.543 213.2 187.009 213.2ZM193.64 213V202.56H195.14L195.18 205.34L195.02 204.96C195.166 204.493 195.4 204.06 195.72 203.66C196.053 203.26 196.446 202.94 196.9 202.7C197.353 202.46 197.853 202.34 198.4 202.34C198.626 202.34 198.84 202.36 199.04 202.4C199.24 202.427 199.406 202.467 199.54 202.52L199.12 204.2C198.946 204.12 198.766 204.067 198.58 204.04C198.406 204 198.24 203.98 198.08 203.98C197.626 203.98 197.22 204.06 196.86 204.22C196.5 204.38 196.193 204.607 195.94 204.9C195.686 205.18 195.493 205.507 195.36 205.88C195.226 206.253 195.16 206.653 195.16 207.08V213H193.64ZM205.337 213L200.937 202.56H202.597L206.077 211.1L205.677 211.32L209.497 202.56H211.097L206.417 213H205.337ZM213.258 213V202.56H214.758V213H213.258ZM213.998 200.3C213.625 200.3 213.338 200.207 213.138 200.02C212.952 199.82 212.858 199.553 212.858 199.22C212.858 198.887 212.958 198.62 213.158 198.42C213.358 198.22 213.638 198.12 213.998 198.12C214.358 198.12 214.638 198.22 214.838 198.42C215.038 198.607 215.138 198.873 215.138 199.22C215.138 199.54 215.038 199.8 214.838 200C214.638 200.2 214.358 200.3 213.998 200.3ZM222.634 213.2C221.594 213.2 220.668 212.973 219.854 212.52C219.054 212.067 218.428 211.433 217.974 210.62C217.521 209.807 217.294 208.873 217.294 207.82C217.294 207.007 217.421 206.273 217.674 205.62C217.928 204.953 218.281 204.373 218.734 203.88C219.201 203.387 219.754 203.007 220.394 202.74C221.034 202.46 221.728 202.32 222.474 202.32C223.181 202.32 223.821 202.447 224.394 202.7C224.981 202.953 225.481 203.307 225.894 203.76C226.321 204.2 226.641 204.727 226.854 205.34C227.068 205.953 227.161 206.627 227.134 207.36L227.114 208.06H218.414L218.194 206.8H225.974L225.614 207.14V206.66C225.588 206.18 225.448 205.72 225.194 205.28C224.941 204.827 224.581 204.46 224.114 204.18C223.661 203.9 223.114 203.76 222.474 203.76C221.728 203.76 221.081 203.913 220.534 204.22C219.988 204.513 219.568 204.953 219.274 205.54C218.981 206.127 218.834 206.853 218.834 207.72C218.834 208.547 218.994 209.267 219.314 209.88C219.634 210.48 220.088 210.947 220.674 211.28C221.274 211.613 221.994 211.78 222.834 211.78C223.328 211.78 223.814 211.7 224.294 211.54C224.788 211.367 225.328 211.033 225.914 210.54L226.694 211.62C226.388 211.927 226.021 212.2 225.594 212.44C225.168 212.667 224.701 212.853 224.194 213C223.688 213.133 223.168 213.2 222.634 213.2ZM231.529 213L227.909 202.56L229.509 202.54L232.329 211.04L231.829 211L234.889 204.16H235.789L238.869 211L238.269 211.04L241.149 202.56H242.729L239.109 213H238.229L234.989 205.56L235.589 205.6L232.449 213H231.529Z" fill="black"/>
<path d="M649.272 255.16C648.483 255.16 647.752 255.021 647.08 254.744C646.419 254.456 645.837 254.056 645.336 253.544C644.845 253.032 644.461 252.429 644.184 251.736C643.917 251.032 643.784 250.264 643.784 249.432C643.784 248.6 643.917 247.837 644.184 247.144C644.461 246.44 644.845 245.832 645.336 245.32C645.837 244.797 646.419 244.397 647.08 244.12C647.752 243.832 648.483 243.688 649.272 243.688C650.072 243.688 650.803 243.832 651.464 244.12C652.136 244.397 652.717 244.797 653.208 245.32C653.709 245.832 654.093 246.44 654.36 247.144C654.637 247.837 654.776 248.6 654.776 249.432C654.776 250.253 654.637 251.016 654.36 251.72C654.093 252.413 653.709 253.021 653.208 253.544C652.717 254.056 652.136 254.456 651.464 254.744C650.803 255.021 650.072 255.16 649.272 255.16ZM649.272 253.928C649.88 253.928 650.44 253.821 650.952 253.608C651.475 253.384 651.923 253.069 652.296 252.664C652.669 252.259 652.957 251.784 653.16 251.24C653.373 250.685 653.48 250.083 653.48 249.432C653.48 248.771 653.373 248.168 653.16 247.624C652.957 247.069 652.669 246.589 652.296 246.184C651.923 245.779 651.475 245.464 650.952 245.24C650.44 245.016 649.88 244.904 649.272 244.904C648.664 244.904 648.099 245.016 647.576 245.24C647.064 245.464 646.621 245.779 646.248 246.184C645.875 246.589 645.587 247.069 645.384 247.624C645.181 248.168 645.08 248.771 645.08 249.432C645.08 250.083 645.181 250.685 645.384 251.24C645.587 251.784 645.875 252.259 646.248 252.664C646.621 253.069 647.064 253.384 647.576 253.608C648.099 253.821 648.664 253.928 649.272 253.928ZM656.731 255V246.648H657.914L657.963 248.392L657.771 248.472C657.877 248.109 658.085 247.779 658.395 247.48C658.704 247.181 659.072 246.941 659.499 246.76C659.936 246.568 660.384 246.472 660.843 246.472C661.461 246.472 661.979 246.595 662.395 246.84C662.811 247.085 663.125 247.464 663.339 247.976C663.552 248.488 663.659 249.139 663.659 249.928V255H662.443V249.992C662.443 249.437 662.368 248.984 662.219 248.632C662.08 248.269 661.861 248.003 661.563 247.832C661.264 247.661 660.896 247.581 660.459 247.592C660.096 247.592 659.76 247.656 659.451 247.784C659.141 247.901 658.875 248.067 658.651 248.28C658.427 248.493 658.251 248.739 658.123 249.016C657.995 249.293 657.931 249.592 657.931 249.912V255H657.339C657.264 255 657.179 255 657.083 255C656.987 255 656.869 255 656.731 255ZM669.549 258.68C668.931 258.68 668.344 258.584 667.789 258.392C667.235 258.2 666.776 257.96 666.413 257.672L666.893 256.664C667.107 256.835 667.352 256.984 667.629 257.112C667.917 257.251 668.227 257.357 668.557 257.432C668.888 257.517 669.224 257.56 669.565 257.56C670.184 257.56 670.707 257.443 671.133 257.208C671.571 256.984 671.901 256.648 672.125 256.2C672.36 255.752 672.477 255.197 672.477 254.536V252.936L672.669 252.888C672.573 253.293 672.365 253.672 672.045 254.024C671.725 254.365 671.336 254.643 670.877 254.856C670.419 255.059 669.933 255.16 669.421 255.16C668.643 255.16 667.944 254.973 667.325 254.6C666.717 254.227 666.237 253.715 665.885 253.064C665.533 252.403 665.357 251.656 665.357 250.824C665.357 249.981 665.533 249.235 665.885 248.584C666.248 247.923 666.733 247.405 667.341 247.032C667.949 246.659 668.632 246.472 669.389 246.472C669.72 246.472 670.04 246.515 670.349 246.6C670.659 246.675 670.941 246.787 671.197 246.936C671.464 247.085 671.704 247.256 671.917 247.448C672.131 247.64 672.307 247.848 672.445 248.072C672.595 248.296 672.701 248.525 672.765 248.76L672.429 248.712L672.477 246.648H673.677V254.488C673.677 255.16 673.581 255.752 673.389 256.264C673.197 256.787 672.915 257.224 672.541 257.576C672.179 257.939 671.741 258.211 671.229 258.392C670.728 258.584 670.168 258.68 669.549 258.68ZM669.565 254.008C670.131 254.008 670.632 253.875 671.069 253.608C671.517 253.331 671.869 252.952 672.125 252.472C672.381 251.992 672.509 251.437 672.509 250.808C672.509 250.189 672.381 249.64 672.125 249.16C671.88 248.68 671.533 248.301 671.085 248.024C670.637 247.747 670.131 247.608 669.565 247.608C668.989 247.608 668.477 247.747 668.029 248.024C667.592 248.301 667.245 248.68 666.989 249.16C666.733 249.64 666.605 250.189 666.605 250.808C666.605 251.416 666.728 251.965 666.973 252.456C667.229 252.936 667.576 253.315 668.013 253.592C668.461 253.869 668.979 254.008 669.565 254.008ZM679.708 255.16C678.876 255.16 678.134 254.973 677.484 254.6C676.844 254.227 676.337 253.709 675.964 253.048C675.601 252.387 675.42 251.635 675.42 250.792C675.42 249.96 675.601 249.219 675.964 248.568C676.337 247.917 676.844 247.405 677.484 247.032C678.134 246.659 678.876 246.472 679.708 246.472C680.529 246.472 681.26 246.659 681.9 247.032C682.55 247.405 683.057 247.917 683.42 248.568C683.793 249.219 683.98 249.96 683.98 250.792C683.98 251.635 683.793 252.387 683.42 253.048C683.057 253.709 682.55 254.227 681.9 254.6C681.26 254.973 680.529 255.16 679.708 255.16ZM679.708 254.024C680.294 254.024 680.817 253.885 681.276 253.608C681.734 253.32 682.092 252.936 682.348 252.456C682.604 251.965 682.732 251.411 682.732 250.792C682.732 250.173 682.604 249.624 682.348 249.144C682.092 248.664 681.734 248.291 681.276 248.024C680.817 247.747 680.294 247.608 679.708 247.608C679.121 247.608 678.593 247.747 678.124 248.024C677.665 248.291 677.302 248.669 677.036 249.16C676.78 249.64 676.657 250.184 676.668 250.792C676.657 251.411 676.78 251.965 677.036 252.456C677.302 252.936 677.665 253.32 678.124 253.608C678.593 253.885 679.121 254.024 679.708 254.024ZM686.051 255V246.648H687.251V255H686.051ZM686.643 244.84C686.344 244.84 686.115 244.765 685.955 244.616C685.805 244.456 685.731 244.243 685.731 243.976C685.731 243.709 685.811 243.496 685.971 243.336C686.131 243.176 686.355 243.096 686.643 243.096C686.931 243.096 687.155 243.176 687.315 243.336C687.475 243.485 687.555 243.699 687.555 243.976C687.555 244.232 687.475 244.44 687.315 244.6C687.155 244.76 686.931 244.84 686.643 244.84ZM689.871 255V246.648H691.055L691.103 248.392L690.911 248.472C691.018 248.109 691.226 247.779 691.535 247.48C691.844 247.181 692.212 246.941 692.639 246.76C693.076 246.568 693.524 246.472 693.983 246.472C694.602 246.472 695.119 246.595 695.535 246.84C695.951 247.085 696.266 247.464 696.479 247.976C696.692 248.488 696.799 249.139 696.799 249.928V255H695.583V249.992C695.583 249.437 695.508 248.984 695.359 248.632C695.22 248.269 695.002 248.003 694.703 247.832C694.404 247.661 694.036 247.581 693.599 247.592C693.236 247.592 692.9 247.656 692.591 247.784C692.282 247.901 692.015 248.067 691.791 248.28C691.567 248.493 691.391 248.739 691.263 249.016C691.135 249.293 691.071 249.592 691.071 249.912V255H690.479C690.404 255 690.319 255 690.223 255C690.127 255 690.01 255 689.871 255ZM702.69 258.68C702.071 258.68 701.485 258.584 700.93 258.392C700.375 258.2 699.917 257.96 699.554 257.672L700.034 256.664C700.247 256.835 700.493 256.984 700.77 257.112C701.058 257.251 701.367 257.357 701.698 257.432C702.029 257.517 702.365 257.56 702.706 257.56C703.325 257.56 703.847 257.443 704.274 257.208C704.711 256.984 705.042 256.648 705.266 256.2C705.501 255.752 705.618 255.197 705.618 254.536V252.936L705.81 252.888C705.714 253.293 705.506 253.672 705.186 254.024C704.866 254.365 704.477 254.643 704.018 254.856C703.559 255.059 703.074 255.16 702.562 255.16C701.783 255.16 701.085 254.973 700.466 254.6C699.858 254.227 699.378 253.715 699.026 253.064C698.674 252.403 698.498 251.656 698.498 250.824C698.498 249.981 698.674 249.235 699.026 248.584C699.389 247.923 699.874 247.405 700.482 247.032C701.09 246.659 701.773 246.472 702.53 246.472C702.861 246.472 703.181 246.515 703.49 246.6C703.799 246.675 704.082 246.787 704.338 246.936C704.605 247.085 704.845 247.256 705.058 247.448C705.271 247.64 705.447 247.848 705.586 248.072C705.735 248.296 705.842 248.525 705.906 248.76L705.57 248.712L705.618 246.648H706.818V254.488C706.818 255.16 706.722 255.752 706.53 256.264C706.338 256.787 706.055 257.224 705.682 257.576C705.319 257.939 704.882 258.211 704.37 258.392C703.869 258.584 703.309 258.68 702.69 258.68ZM702.706 254.008C703.271 254.008 703.773 253.875 704.21 253.608C704.658 253.331 705.01 252.952 705.266 252.472C705.522 251.992 705.65 251.437 705.65 250.808C705.65 250.189 705.522 249.64 705.266 249.16C705.021 248.68 704.674 248.301 704.226 248.024C703.778 247.747 703.271 247.608 702.706 247.608C702.13 247.608 701.618 247.747 701.17 248.024C700.733 248.301 700.386 248.68 700.13 249.16C699.874 249.64 699.746 250.189 699.746 250.808C699.746 251.416 699.869 251.965 700.114 252.456C700.37 252.936 700.717 253.315 701.154 253.592C701.602 253.869 702.119 254.008 702.706 254.008Z" fill="black"/>
<path d="M141.766 328.14C141.458 328.14 141.169 328.098 140.898 328.014C140.627 327.939 140.371 327.827 140.128 327.678C139.885 327.529 139.666 327.342 139.47 327.118C139.274 326.894 139.101 326.642 138.952 326.362L139.456 325.83C139.605 326.11 139.769 326.353 139.946 326.558C140.123 326.763 140.31 326.931 140.506 327.062C140.711 327.193 140.917 327.291 141.122 327.356C141.337 327.412 141.556 327.44 141.78 327.44C142.209 327.44 142.587 327.337 142.914 327.132C143.25 326.917 143.511 326.623 143.698 326.25C143.885 325.877 143.978 325.452 143.978 324.976V318.9H142.2V318.2H146.106V318.9H144.734V325.018C144.734 325.466 144.659 325.881 144.51 326.264C144.37 326.647 144.165 326.978 143.894 327.258C143.633 327.538 143.32 327.757 142.956 327.916C142.601 328.065 142.205 328.14 141.766 328.14ZM150.225 328.14C149.497 328.14 148.849 327.977 148.279 327.65C147.719 327.323 147.276 326.871 146.949 326.292C146.632 325.713 146.473 325.055 146.473 324.318C146.473 323.59 146.632 322.946 146.949 322.386C147.276 321.817 147.719 321.373 148.279 321.056C148.849 320.729 149.497 320.566 150.225 320.566C150.953 320.566 151.597 320.729 152.157 321.056C152.727 321.373 153.17 321.817 153.487 322.386C153.805 322.946 153.963 323.59 153.963 324.318C153.963 325.055 153.805 325.713 153.487 326.292C153.17 326.871 152.727 327.323 152.157 327.65C151.597 327.977 150.953 328.14 150.225 328.14ZM150.225 327.44C150.804 327.44 151.317 327.305 151.765 327.034C152.223 326.763 152.577 326.395 152.829 325.928C153.091 325.461 153.221 324.925 153.221 324.318C153.221 323.73 153.091 323.207 152.829 322.75C152.577 322.283 152.223 321.919 151.765 321.658C151.317 321.397 150.804 321.266 150.225 321.266C149.637 321.266 149.115 321.397 148.657 321.658C148.209 321.919 147.855 322.283 147.593 322.75C147.341 323.207 147.215 323.73 147.215 324.318C147.215 324.925 147.341 325.461 147.593 325.928C147.855 326.395 148.209 326.763 148.657 327.034C149.115 327.305 149.637 327.44 150.225 327.44ZM158.998 328.14C158.625 328.14 158.27 328.084 157.934 327.972C157.608 327.86 157.304 327.706 157.024 327.51C156.754 327.305 156.52 327.067 156.324 326.796C156.138 326.525 156.002 326.236 155.918 325.928L156.17 326.152L156.1 328H155.428V317.64H156.128V322.54L155.918 322.778C156.002 322.47 156.138 322.181 156.324 321.91C156.52 321.639 156.754 321.406 157.024 321.21C157.304 321.005 157.608 320.846 157.934 320.734C158.27 320.622 158.625 320.566 158.998 320.566C159.642 320.566 160.226 320.729 160.748 321.056C161.271 321.383 161.686 321.831 161.994 322.4C162.312 322.969 162.47 323.623 162.47 324.36C162.47 325.088 162.316 325.737 162.008 326.306C161.71 326.875 161.299 327.323 160.776 327.65C160.254 327.977 159.661 328.14 158.998 328.14ZM158.9 327.44C159.46 327.44 159.95 327.305 160.37 327.034C160.8 326.763 161.131 326.395 161.364 325.928C161.607 325.461 161.728 324.934 161.728 324.346C161.728 323.749 161.607 323.221 161.364 322.764C161.122 322.297 160.786 321.933 160.356 321.672C159.936 321.401 159.451 321.266 158.9 321.266C158.35 321.266 157.86 321.401 157.43 321.672C157.01 321.933 156.679 322.297 156.436 322.764C156.194 323.221 156.072 323.749 156.072 324.346C156.072 324.953 156.194 325.489 156.436 325.956C156.688 326.413 157.024 326.777 157.444 327.048C157.874 327.309 158.359 327.44 158.9 327.44ZM168.36 328V318.2H171.888C172.466 318.2 172.98 318.331 173.428 318.592C173.885 318.853 174.244 319.208 174.506 319.656C174.767 320.095 174.898 320.594 174.898 321.154C174.898 321.714 174.772 322.204 174.52 322.624C174.277 323.044 173.936 323.375 173.498 323.618C173.068 323.851 172.578 323.968 172.028 323.968H169.06V328H168.36ZM174.464 328L172.028 323.786L172.616 323.422L175.276 328H174.464ZM169.06 323.268H172.112C172.513 323.268 172.868 323.179 173.176 323.002C173.484 322.825 173.722 322.577 173.89 322.26C174.067 321.943 174.156 321.583 174.156 321.182C174.156 320.743 174.058 320.351 173.862 320.006C173.666 319.661 173.39 319.39 173.036 319.194C172.69 318.998 172.294 318.9 171.846 318.9H169.06V323.268ZM179.552 328.14C178.824 328.14 178.175 327.977 177.606 327.65C177.046 327.323 176.602 326.871 176.276 326.292C175.958 325.713 175.8 325.055 175.8 324.318C175.8 323.59 175.958 322.946 176.276 322.386C176.602 321.817 177.046 321.373 177.606 321.056C178.175 320.729 178.824 320.566 179.552 320.566C180.28 320.566 180.924 320.729 181.484 321.056C182.053 321.373 182.496 321.817 182.814 322.386C183.131 322.946 183.29 323.59 183.29 324.318C183.29 325.055 183.131 325.713 182.814 326.292C182.496 326.871 182.053 327.323 181.484 327.65C180.924 327.977 180.28 328.14 179.552 328.14ZM179.552 327.44C180.13 327.44 180.644 327.305 181.092 327.034C181.549 326.763 181.904 326.395 182.156 325.928C182.417 325.461 182.548 324.925 182.548 324.318C182.548 323.73 182.417 323.207 182.156 322.75C181.904 322.283 181.549 321.919 181.092 321.658C180.644 321.397 180.13 321.266 179.552 321.266C178.964 321.266 178.441 321.397 177.984 321.658C177.536 321.919 177.181 322.283 176.92 322.75C176.668 323.207 176.542 323.73 176.542 324.318C176.542 324.925 176.668 325.461 176.92 325.928C177.181 326.395 177.536 326.763 177.984 327.034C178.441 327.305 178.964 327.44 179.552 327.44ZM184.782 328V317.64H185.482V328H184.782ZM190.458 328.14C189.758 328.14 189.133 327.981 188.582 327.664C188.041 327.347 187.616 326.903 187.308 326.334C187 325.765 186.846 325.102 186.846 324.346C186.846 323.795 186.93 323.291 187.098 322.834C187.276 322.377 187.518 321.98 187.826 321.644C188.134 321.299 188.503 321.033 188.932 320.846C189.371 320.659 189.847 320.566 190.36 320.566C190.864 320.566 191.317 320.65 191.718 320.818C192.129 320.986 192.474 321.229 192.754 321.546C193.034 321.854 193.244 322.223 193.384 322.652C193.524 323.072 193.585 323.539 193.566 324.052L193.552 324.43H187.364V323.786H193.174L192.866 324.038V323.702C192.866 323.329 192.773 322.955 192.586 322.582C192.409 322.209 192.134 321.896 191.76 321.644C191.387 321.392 190.916 321.266 190.346 321.266C189.814 321.266 189.338 321.383 188.918 321.616C188.508 321.849 188.181 322.19 187.938 322.638C187.705 323.086 187.588 323.641 187.588 324.304C187.588 324.939 187.705 325.494 187.938 325.97C188.172 326.437 188.508 326.801 188.946 327.062C189.394 327.314 189.94 327.44 190.584 327.44C190.93 327.44 191.284 327.384 191.648 327.272C192.012 327.16 192.423 326.917 192.88 326.544L193.244 327.062C193.039 327.258 192.796 327.44 192.516 327.608C192.236 327.767 191.924 327.897 191.578 328C191.233 328.093 190.86 328.14 190.458 328.14Z" fill="black"/>
<path d="M274.642 328.14C273.923 328.14 273.261 328.019 272.654 327.776C272.057 327.524 271.534 327.174 271.086 326.726C270.647 326.269 270.307 325.732 270.064 325.116C269.821 324.5 269.7 323.828 269.7 323.1C269.7 322.372 269.817 321.709 270.05 321.112C270.283 320.505 270.615 319.978 271.044 319.53C271.483 319.082 271.991 318.737 272.57 318.494C273.158 318.251 273.802 318.13 274.502 318.13C274.941 318.13 275.384 318.205 275.832 318.354C276.28 318.494 276.695 318.69 277.078 318.942C277.461 319.194 277.778 319.483 278.03 319.81L277.512 320.356C277.307 320.057 277.041 319.796 276.714 319.572C276.387 319.339 276.033 319.157 275.65 319.026C275.267 318.895 274.885 318.83 274.502 318.83C273.914 318.83 273.368 318.937 272.864 319.152C272.369 319.357 271.94 319.651 271.576 320.034C271.221 320.417 270.941 320.869 270.736 321.392C270.54 321.915 270.442 322.484 270.442 323.1C270.442 323.725 270.545 324.304 270.75 324.836C270.955 325.368 271.245 325.83 271.618 326.222C272.001 326.605 272.444 326.903 272.948 327.118C273.461 327.333 274.026 327.44 274.642 327.44C275.015 327.44 275.384 327.389 275.748 327.286C276.121 327.174 276.457 327.025 276.756 326.838C277.055 326.642 277.293 326.423 277.47 326.18L277.848 326.796C277.624 327.057 277.335 327.291 276.98 327.496C276.635 327.692 276.257 327.851 275.846 327.972C275.445 328.084 275.043 328.14 274.642 328.14ZM282.634 328.14C281.906 328.14 281.257 327.977 280.688 327.65C280.128 327.323 279.684 326.871 279.358 326.292C279.04 325.713 278.882 325.055 278.882 324.318C278.882 323.59 279.04 322.946 279.358 322.386C279.684 321.817 280.128 321.373 280.688 321.056C281.257 320.729 281.906 320.566 282.634 320.566C283.362 320.566 284.006 320.729 284.566 321.056C285.135 321.373 285.578 321.817 285.896 322.386C286.213 322.946 286.372 323.59 286.372 324.318C286.372 325.055 286.213 325.713 285.896 326.292C285.578 326.871 285.135 327.323 284.566 327.65C284.006 327.977 283.362 328.14 282.634 328.14ZM282.634 327.44C283.212 327.44 283.726 327.305 284.174 327.034C284.631 326.763 284.986 326.395 285.238 325.928C285.499 325.461 285.63 324.925 285.63 324.318C285.63 323.73 285.499 323.207 285.238 322.75C284.986 322.283 284.631 321.919 284.174 321.658C283.726 321.397 283.212 321.266 282.634 321.266C282.046 321.266 281.523 321.397 281.066 321.658C280.618 321.919 280.263 322.283 280.002 322.75C279.75 323.207 279.624 323.73 279.624 324.318C279.624 324.925 279.75 325.461 280.002 325.928C280.263 326.395 280.618 326.763 281.066 327.034C281.523 327.305 282.046 327.44 282.634 327.44ZM287.836 328V320.72H288.508L288.578 322.484L288.41 322.456C288.494 322.157 288.625 321.891 288.802 321.658C288.989 321.425 289.204 321.229 289.446 321.07C289.698 320.902 289.974 320.776 290.272 320.692C290.571 320.608 290.888 320.566 291.224 320.566C291.579 320.566 291.901 320.627 292.19 320.748C292.489 320.869 292.746 321.089 292.96 321.406C293.175 321.723 293.343 322.171 293.464 322.75L293.184 322.554L293.282 322.316C293.376 322.092 293.511 321.877 293.688 321.672C293.866 321.457 294.076 321.271 294.318 321.112C294.561 320.944 294.832 320.813 295.13 320.72C295.438 320.617 295.765 320.566 296.11 320.566C296.596 320.566 297.011 320.673 297.356 320.888C297.702 321.103 297.963 321.434 298.14 321.882C298.327 322.33 298.42 322.899 298.42 323.59V328H297.72V323.618C297.72 323.077 297.65 322.633 297.51 322.288C297.38 321.933 297.179 321.672 296.908 321.504C296.647 321.327 296.32 321.238 295.928 321.238C295.564 321.238 295.233 321.303 294.934 321.434C294.636 321.555 294.379 321.723 294.164 321.938C293.95 322.153 293.782 322.4 293.66 322.68C293.539 322.951 293.478 323.24 293.478 323.548V328H292.778V323.618C292.778 323.077 292.708 322.633 292.568 322.288C292.438 321.933 292.237 321.672 291.966 321.504C291.696 321.327 291.364 321.238 290.972 321.238C290.618 321.238 290.291 321.303 289.992 321.434C289.694 321.555 289.437 321.723 289.222 321.938C289.008 322.153 288.84 322.4 288.718 322.68C288.597 322.951 288.536 323.24 288.536 323.548V328H287.836ZM300.456 331.08V320.72H301.128L301.198 322.61L301.016 322.778C301.137 322.358 301.342 321.985 301.632 321.658C301.93 321.322 302.29 321.056 302.71 320.86C303.13 320.664 303.587 320.566 304.082 320.566C304.726 320.566 305.309 320.729 305.832 321.056C306.364 321.383 306.784 321.831 307.092 322.4C307.409 322.969 307.568 323.623 307.568 324.36C307.568 325.088 307.414 325.737 307.106 326.306C306.807 326.875 306.392 327.323 305.86 327.65C305.337 327.977 304.744 328.14 304.082 328.14C303.587 328.14 303.13 328.042 302.71 327.846C302.29 327.65 301.93 327.389 301.632 327.062C301.342 326.726 301.137 326.348 301.016 325.928L301.156 326.11V331.08H300.456ZM303.97 327.44C304.53 327.44 305.024 327.309 305.454 327.048C305.883 326.777 306.219 326.409 306.462 325.942C306.704 325.475 306.826 324.948 306.826 324.36C306.826 323.763 306.7 323.231 306.448 322.764C306.205 322.297 305.869 321.933 305.44 321.672C305.01 321.401 304.52 321.266 303.97 321.266C303.419 321.266 302.924 321.401 302.486 321.672C302.056 321.933 301.716 322.297 301.464 322.764C301.221 323.221 301.1 323.749 301.1 324.346C301.1 324.953 301.226 325.489 301.478 325.956C301.73 326.413 302.07 326.777 302.5 327.048C302.929 327.309 303.419 327.44 303.97 327.44ZM311.94 328.14C311.277 328.14 310.684 327.977 310.162 327.65C309.639 327.323 309.224 326.875 308.916 326.306C308.617 325.737 308.468 325.088 308.468 324.36C308.468 323.623 308.622 322.969 308.93 322.4C309.247 321.831 309.667 321.383 310.19 321.056C310.712 320.729 311.296 320.566 311.94 320.566C312.313 320.566 312.668 320.622 313.004 320.734C313.34 320.846 313.643 321.005 313.914 321.21C314.184 321.406 314.418 321.639 314.614 321.91C314.81 322.181 314.95 322.475 315.034 322.792L314.754 322.61L314.824 320.72H315.496V328H314.796V326.18L315.034 325.914C314.95 326.222 314.81 326.511 314.614 326.782C314.418 327.053 314.184 327.291 313.914 327.496C313.643 327.701 313.34 327.86 313.004 327.972C312.668 328.084 312.313 328.14 311.94 328.14ZM312.038 327.44C312.57 327.44 313.046 327.309 313.466 327.048C313.895 326.777 314.231 326.413 314.474 325.956C314.726 325.489 314.852 324.953 314.852 324.346C314.852 323.749 314.73 323.221 314.488 322.764C314.245 322.297 313.909 321.933 313.48 321.672C313.06 321.401 312.579 321.266 312.038 321.266C311.487 321.266 310.997 321.401 310.568 321.672C310.148 321.933 309.816 322.297 309.574 322.764C309.331 323.221 309.21 323.749 309.21 324.346C309.21 324.934 309.326 325.461 309.56 325.928C309.802 326.395 310.134 326.763 310.554 327.034C310.983 327.305 311.478 327.44 312.038 327.44ZM317.545 328V320.72H318.217L318.287 322.26H318.203C318.306 321.952 318.493 321.672 318.763 321.42C319.034 321.159 319.356 320.953 319.729 320.804C320.112 320.645 320.513 320.566 320.933 320.566C321.447 320.566 321.881 320.673 322.235 320.888C322.599 321.103 322.87 321.434 323.047 321.882C323.234 322.33 323.327 322.899 323.327 323.59V328H322.627V323.618C322.627 323.077 322.553 322.633 322.403 322.288C322.263 321.933 322.053 321.672 321.773 321.504C321.493 321.327 321.143 321.238 320.723 321.238C320.359 321.238 320.028 321.303 319.729 321.434C319.431 321.555 319.169 321.723 318.945 321.938C318.721 322.153 318.549 322.4 318.427 322.68C318.306 322.951 318.245 323.24 318.245 323.548V328H317.895C317.886 328 317.853 328 317.797 328C317.751 328 317.667 328 317.545 328ZM326.53 331.22L327.888 327.762L328.042 328.602L324.374 320.72H325.116L327.818 326.516C327.92 326.721 328.009 326.927 328.084 327.132C328.168 327.337 328.256 327.547 328.35 327.762L327.93 327.594C327.986 327.463 328.037 327.333 328.084 327.202C328.14 327.062 328.196 326.927 328.252 326.796L330.688 320.72H331.43L328.532 328L327.258 331.22H326.53Z" fill="black"/>
<path d="M437.512 328V318.2H441.082C441.717 318.2 442.309 318.321 442.86 318.564C443.411 318.807 443.891 319.147 444.302 319.586C444.722 320.015 445.049 320.529 445.282 321.126C445.525 321.723 445.646 322.381 445.646 323.1C445.646 323.809 445.525 324.467 445.282 325.074C445.049 325.671 444.722 326.189 444.302 326.628C443.891 327.057 443.411 327.393 442.86 327.636C442.309 327.879 441.717 328 441.082 328H437.512ZM438.212 327.538L438.016 327.3H441.012C441.544 327.3 442.043 327.197 442.51 326.992C442.986 326.787 443.401 326.497 443.756 326.124C444.111 325.741 444.391 325.298 444.596 324.794C444.801 324.281 444.904 323.716 444.904 323.1C444.904 322.484 444.801 321.924 444.596 321.42C444.391 320.907 444.111 320.463 443.756 320.09C443.401 319.707 442.986 319.413 442.51 319.208C442.043 319.003 441.544 318.9 441.012 318.9H437.974L438.212 318.69V327.538ZM450.41 328.14C449.71 328.14 449.084 327.981 448.534 327.664C447.992 327.347 447.568 326.903 447.26 326.334C446.952 325.765 446.798 325.102 446.798 324.346C446.798 323.795 446.882 323.291 447.05 322.834C447.227 322.377 447.47 321.98 447.778 321.644C448.086 321.299 448.454 321.033 448.884 320.846C449.322 320.659 449.798 320.566 450.312 320.566C450.816 320.566 451.268 320.65 451.67 320.818C452.08 320.986 452.426 321.229 452.706 321.546C452.986 321.854 453.196 322.223 453.336 322.652C453.476 323.072 453.536 323.539 453.518 324.052L453.504 324.43H447.316V323.786H453.126L452.818 324.038V323.702C452.818 323.329 452.724 322.955 452.538 322.582C452.36 322.209 452.085 321.896 451.712 321.644C451.338 321.392 450.867 321.266 450.298 321.266C449.766 321.266 449.29 321.383 448.87 321.616C448.459 321.849 448.132 322.19 447.89 322.638C447.656 323.086 447.54 323.641 447.54 324.304C447.54 324.939 447.656 325.494 447.89 325.97C448.123 326.437 448.459 326.801 448.898 327.062C449.346 327.314 449.892 327.44 450.536 327.44C450.881 327.44 451.236 327.384 451.6 327.272C451.964 327.16 452.374 326.917 452.832 326.544L453.196 327.062C452.99 327.258 452.748 327.44 452.468 327.608C452.188 327.767 451.875 327.897 451.53 328C451.184 328.093 450.811 328.14 450.41 328.14ZM454.96 328V317.64H455.66V328H454.96ZM460.636 328.14C459.936 328.14 459.311 327.981 458.76 327.664C458.219 327.347 457.794 326.903 457.486 326.334C457.178 325.765 457.024 325.102 457.024 324.346C457.024 323.795 457.108 323.291 457.276 322.834C457.454 322.377 457.696 321.98 458.004 321.644C458.312 321.299 458.681 321.033 459.11 320.846C459.549 320.659 460.025 320.566 460.538 320.566C461.042 320.566 461.495 320.65 461.896 320.818C462.307 320.986 462.652 321.229 462.932 321.546C463.212 321.854 463.422 322.223 463.562 322.652C463.702 323.072 463.763 323.539 463.744 324.052L463.73 324.43H457.542V323.786H463.352L463.044 324.038V323.702C463.044 323.329 462.951 322.955 462.764 322.582C462.587 322.209 462.312 321.896 461.938 321.644C461.565 321.392 461.094 321.266 460.524 321.266C459.992 321.266 459.516 321.383 459.096 321.616C458.686 321.849 458.359 322.19 458.116 322.638C457.883 323.086 457.766 323.641 457.766 324.304C457.766 324.939 457.883 325.494 458.116 325.97C458.35 326.437 458.686 326.801 459.124 327.062C459.572 327.314 460.118 327.44 460.762 327.44C461.108 327.44 461.462 327.384 461.826 327.272C462.19 327.16 462.601 326.917 463.058 326.544L463.422 327.062C463.217 327.258 462.974 327.44 462.694 327.608C462.414 327.767 462.102 327.897 461.756 328C461.411 328.093 461.038 328.14 460.636 328.14ZM468.114 331.22C467.554 331.22 467.05 331.131 466.602 330.954C466.154 330.786 465.767 330.581 465.44 330.338L465.762 329.68C465.949 329.839 466.164 329.979 466.406 330.1C466.649 330.231 466.915 330.333 467.204 330.408C467.503 330.483 467.82 330.52 468.156 330.52C468.716 330.52 469.202 330.403 469.612 330.17C470.023 329.946 470.336 329.605 470.55 329.148C470.774 328.7 470.886 328.14 470.886 327.468V326.096L471.082 325.914C470.961 326.334 470.751 326.712 470.452 327.048C470.154 327.384 469.79 327.65 469.36 327.846C468.94 328.042 468.483 328.14 467.988 328.14C467.326 328.14 466.733 327.977 466.21 327.65C465.688 327.323 465.272 326.875 464.964 326.306C464.666 325.737 464.516 325.088 464.516 324.36C464.516 323.623 464.67 322.969 464.978 322.4C465.296 321.831 465.716 321.383 466.238 321.056C466.761 320.729 467.344 320.566 467.988 320.566C468.287 320.566 468.572 320.603 468.842 320.678C469.122 320.753 469.379 320.855 469.612 320.986C469.855 321.117 470.074 321.275 470.27 321.462C470.466 321.649 470.63 321.854 470.76 322.078C470.9 322.302 471.008 322.54 471.082 322.792L470.816 322.61L470.886 320.72H471.586V327.552C471.586 328.14 471.502 328.658 471.334 329.106C471.166 329.563 470.924 329.946 470.606 330.254C470.298 330.571 469.93 330.809 469.5 330.968C469.08 331.136 468.618 331.22 468.114 331.22ZM468.086 327.44C468.618 327.44 469.094 327.309 469.514 327.048C469.944 326.777 470.28 326.413 470.522 325.956C470.774 325.489 470.9 324.953 470.9 324.346C470.9 323.749 470.779 323.221 470.536 322.764C470.294 322.297 469.958 321.933 469.528 321.672C469.108 321.401 468.628 321.266 468.086 321.266C467.536 321.266 467.046 321.401 466.616 321.672C466.196 321.933 465.865 322.297 465.622 322.764C465.38 323.221 465.258 323.749 465.258 324.346C465.258 324.934 465.375 325.461 465.608 325.928C465.851 326.395 466.182 326.763 466.602 327.034C467.032 327.305 467.526 327.44 468.086 327.44ZM476.533 328.14C475.871 328.14 475.278 327.977 474.755 327.65C474.233 327.323 473.817 326.875 473.509 326.306C473.211 325.737 473.061 325.088 473.061 324.36C473.061 323.623 473.215 322.969 473.523 322.4C473.841 321.831 474.261 321.383 474.783 321.056C475.306 320.729 475.889 320.566 476.533 320.566C476.907 320.566 477.261 320.622 477.597 320.734C477.933 320.846 478.237 321.005 478.507 321.21C478.778 321.406 479.011 321.639 479.207 321.91C479.403 322.181 479.543 322.475 479.627 322.792L479.347 322.61L479.417 320.72H480.089V328H479.389V326.18L479.627 325.914C479.543 326.222 479.403 326.511 479.207 326.782C479.011 327.053 478.778 327.291 478.507 327.496C478.237 327.701 477.933 327.86 477.597 327.972C477.261 328.084 476.907 328.14 476.533 328.14ZM476.631 327.44C477.163 327.44 477.639 327.309 478.059 327.048C478.489 326.777 478.825 326.413 479.067 325.956C479.319 325.489 479.445 324.953 479.445 324.346C479.445 323.749 479.324 323.221 479.081 322.764C478.839 322.297 478.503 321.933 478.073 321.672C477.653 321.401 477.173 321.266 476.631 321.266C476.081 321.266 475.591 321.401 475.161 321.672C474.741 321.933 474.41 322.297 474.167 322.764C473.925 323.221 473.803 323.749 473.803 324.346C473.803 324.934 473.92 325.461 474.153 325.928C474.396 326.395 474.727 326.763 475.147 327.034C475.577 327.305 476.071 327.44 476.631 327.44ZM483.245 328V318.774H483.945V328H483.245ZM481.495 321.364V320.72H485.905V321.364H481.495ZM490.14 328.14C489.44 328.14 488.815 327.981 488.264 327.664C487.723 327.347 487.298 326.903 486.99 326.334C486.682 325.765 486.528 325.102 486.528 324.346C486.528 323.795 486.612 323.291 486.78 322.834C486.957 322.377 487.2 321.98 487.508 321.644C487.816 321.299 488.185 321.033 488.614 320.846C489.053 320.659 489.529 320.566 490.042 320.566C490.546 320.566 490.999 320.65 491.4 320.818C491.811 320.986 492.156 321.229 492.436 321.546C492.716 321.854 492.926 322.223 493.066 322.652C493.206 323.072 493.267 323.539 493.248 324.052L493.234 324.43H487.046V323.786H492.856L492.548 324.038V323.702C492.548 323.329 492.455 322.955 492.268 322.582C492.091 322.209 491.815 321.896 491.442 321.644C491.069 321.392 490.597 321.266 490.028 321.266C489.496 321.266 489.02 321.383 488.6 321.616C488.189 321.849 487.863 322.19 487.62 322.638C487.387 323.086 487.27 323.641 487.27 324.304C487.27 324.939 487.387 325.494 487.62 325.97C487.853 326.437 488.189 326.801 488.628 327.062C489.076 327.314 489.622 327.44 490.266 327.44C490.611 327.44 490.966 327.384 491.33 327.272C491.694 327.16 492.105 326.917 492.562 326.544L492.926 327.062C492.721 327.258 492.478 327.44 492.198 327.608C491.918 327.767 491.605 327.897 491.26 328C490.915 328.093 490.541 328.14 490.14 328.14ZM497.561 328.14C496.898 328.14 496.305 327.977 495.783 327.65C495.26 327.323 494.845 326.875 494.537 326.306C494.238 325.737 494.089 325.088 494.089 324.36C494.089 323.623 494.243 322.969 494.551 322.4C494.868 321.831 495.288 321.383 495.811 321.056C496.333 320.729 496.917 320.566 497.561 320.566C497.934 320.566 498.289 320.622 498.625 320.734C498.961 320.846 499.264 321.005 499.535 321.21C499.805 321.406 500.039 321.639 500.235 321.91C500.431 322.181 500.571 322.475 500.655 322.792L500.417 322.554V317.64H501.117V328H500.445L500.389 326.11L500.655 325.914C500.571 326.222 500.431 326.511 500.235 326.782C500.039 327.053 499.805 327.291 499.535 327.496C499.264 327.701 498.961 327.86 498.625 327.972C498.289 328.084 497.934 328.14 497.561 328.14ZM497.659 327.44C498.191 327.44 498.667 327.309 499.087 327.048C499.516 326.777 499.852 326.413 500.095 325.956C500.347 325.489 500.473 324.953 500.473 324.346C500.473 323.749 500.351 323.221 500.109 322.764C499.866 322.297 499.53 321.933 499.101 321.672C498.681 321.401 498.2 321.266 497.659 321.266C497.108 321.266 496.618 321.401 496.189 321.672C495.769 321.933 495.437 322.297 495.195 322.764C494.952 323.221 494.831 323.749 494.831 324.346C494.831 324.934 494.947 325.461 495.181 325.928C495.423 326.395 495.755 326.763 496.175 327.034C496.604 327.305 497.099 327.44 497.659 327.44ZM510.296 328.14C509.568 328.14 508.919 327.977 508.35 327.65C507.79 327.323 507.346 326.871 507.02 326.292C506.702 325.713 506.544 325.055 506.544 324.318C506.544 323.59 506.702 322.946 507.02 322.386C507.346 321.817 507.79 321.373 508.35 321.056C508.919 320.729 509.568 320.566 510.296 320.566C511.024 320.566 511.668 320.729 512.228 321.056C512.797 321.373 513.24 321.817 513.558 322.386C513.875 322.946 514.034 323.59 514.034 324.318C514.034 325.055 513.875 325.713 513.558 326.292C513.24 326.871 512.797 327.323 512.228 327.65C511.668 327.977 511.024 328.14 510.296 328.14ZM510.296 327.44C510.874 327.44 511.388 327.305 511.836 327.034C512.293 326.763 512.648 326.395 512.9 325.928C513.161 325.461 513.292 324.925 513.292 324.318C513.292 323.73 513.161 323.207 512.9 322.75C512.648 322.283 512.293 321.919 511.836 321.658C511.388 321.397 510.874 321.266 510.296 321.266C509.708 321.266 509.185 321.397 508.728 321.658C508.28 321.919 507.925 322.283 507.664 322.75C507.412 323.207 507.286 323.73 507.286 324.318C507.286 324.925 507.412 325.461 507.664 325.928C507.925 326.395 508.28 326.763 508.728 327.034C509.185 327.305 509.708 327.44 510.296 327.44ZM515.499 328V320.72H516.171L516.241 322.26H516.157C516.259 321.952 516.446 321.672 516.717 321.42C516.987 321.159 517.309 320.953 517.683 320.804C518.065 320.645 518.467 320.566 518.887 320.566C519.4 320.566 519.834 320.673 520.189 320.888C520.553 321.103 520.823 321.434 521.001 321.882C521.187 322.33 521.281 322.899 521.281 323.59V328H520.581V323.618C520.581 323.077 520.506 322.633 520.357 322.288C520.217 321.933 520.007 321.672 519.727 321.504C519.447 321.327 519.097 321.238 518.677 321.238C518.313 321.238 517.981 321.303 517.683 321.434C517.384 321.555 517.123 321.723 516.899 321.938C516.675 322.153 516.502 322.4 516.381 322.68C516.259 322.951 516.199 323.24 516.199 323.548V328H515.849C515.839 328 515.807 328 515.751 328C515.704 328 515.62 328 515.499 328Z" fill="black"/>
<path d="M605.214 328.14C604.747 328.14 604.299 328.07 603.87 327.93C603.45 327.79 603.058 327.585 602.694 327.314C602.339 327.034 602.027 326.693 601.756 326.292L602.26 325.774C602.671 326.371 603.128 326.801 603.632 327.062C604.136 327.314 604.673 327.44 605.242 327.44C605.737 327.44 606.18 327.356 606.572 327.188C606.964 327.011 607.272 326.773 607.496 326.474C607.729 326.166 607.846 325.821 607.846 325.438C607.846 325.177 607.799 324.953 607.706 324.766C607.622 324.579 607.496 324.416 607.328 324.276C607.169 324.136 606.973 324.015 606.74 323.912C606.516 323.8 606.259 323.702 605.97 323.618C605.69 323.525 605.387 323.431 605.06 323.338C604.612 323.207 604.211 323.072 603.856 322.932C603.511 322.792 603.212 322.624 602.96 322.428C602.717 322.232 602.531 321.999 602.4 321.728C602.279 321.457 602.218 321.126 602.218 320.734C602.218 320.351 602.293 320.001 602.442 319.684C602.601 319.367 602.82 319.091 603.1 318.858C603.38 318.625 603.702 318.447 604.066 318.326C604.439 318.195 604.841 318.13 605.27 318.13C605.774 318.13 606.213 318.205 606.586 318.354C606.969 318.494 607.305 318.695 607.594 318.956C607.883 319.217 608.145 319.525 608.378 319.88L607.86 320.384C607.655 320.067 607.426 319.791 607.174 319.558C606.922 319.325 606.637 319.147 606.32 319.026C606.012 318.895 605.662 318.83 605.27 318.83C604.822 318.83 604.421 318.914 604.066 319.082C603.721 319.241 603.445 319.465 603.24 319.754C603.035 320.043 602.932 320.375 602.932 320.748C602.932 321.009 602.979 321.238 603.072 321.434C603.175 321.63 603.329 321.803 603.534 321.952C603.749 322.092 604.015 322.223 604.332 322.344C604.659 322.456 605.046 322.568 605.494 322.68C605.951 322.792 606.367 322.923 606.74 323.072C607.113 323.221 607.435 323.399 607.706 323.604C607.986 323.809 608.196 324.057 608.336 324.346C608.485 324.635 608.56 324.985 608.56 325.396C608.56 325.919 608.415 326.39 608.126 326.81C607.837 327.221 607.44 327.547 606.936 327.79C606.432 328.023 605.858 328.14 605.214 328.14ZM611.427 328V318.774H612.127V328H611.427ZM609.677 321.364V320.72H614.087V321.364H609.677ZM618.182 328.14C617.519 328.14 616.926 327.977 616.404 327.65C615.881 327.323 615.466 326.875 615.158 326.306C614.859 325.737 614.71 325.088 614.71 324.36C614.71 323.623 614.864 322.969 615.172 322.4C615.489 321.831 615.909 321.383 616.432 321.056C616.954 320.729 617.538 320.566 618.182 320.566C618.555 320.566 618.91 320.622 619.246 320.734C619.582 320.846 619.885 321.005 620.156 321.21C620.426 321.406 620.66 321.639 620.856 321.91C621.052 322.181 621.192 322.475 621.276 322.792L620.996 322.61L621.066 320.72H621.738V328H621.038V326.18L621.276 325.914C621.192 326.222 621.052 326.511 620.856 326.782C620.66 327.053 620.426 327.291 620.156 327.496C619.885 327.701 619.582 327.86 619.246 327.972C618.91 328.084 618.555 328.14 618.182 328.14ZM618.28 327.44C618.812 327.44 619.288 327.309 619.708 327.048C620.137 326.777 620.473 326.413 620.716 325.956C620.968 325.489 621.094 324.953 621.094 324.346C621.094 323.749 620.972 323.221 620.73 322.764C620.487 322.297 620.151 321.933 619.722 321.672C619.302 321.401 618.821 321.266 618.28 321.266C617.729 321.266 617.239 321.401 616.81 321.672C616.39 321.933 616.058 322.297 615.816 322.764C615.573 323.221 615.452 323.749 615.452 324.346C615.452 324.934 615.568 325.461 615.802 325.928C616.044 326.395 616.376 326.763 616.796 327.034C617.225 327.305 617.72 327.44 618.28 327.44ZM624.894 328V318.774H625.594V328H624.894ZM623.144 321.364V320.72H627.554V321.364H623.144ZM631.437 328.14C630.84 328.14 630.345 328.033 629.953 327.818C629.57 327.603 629.281 327.277 629.085 326.838C628.898 326.39 628.805 325.821 628.805 325.13V320.72H629.505V325.102C629.505 325.643 629.575 326.091 629.715 326.446C629.855 326.791 630.07 327.048 630.359 327.216C630.648 327.384 631.012 327.468 631.451 327.468C631.796 327.468 632.118 327.407 632.417 327.286C632.716 327.155 632.977 326.987 633.201 326.782C633.425 326.567 633.598 326.325 633.719 326.054C633.85 325.774 633.915 325.48 633.915 325.172V320.72H634.615V328H633.943L633.873 326.46H633.957C633.854 326.768 633.672 327.048 633.411 327.3C633.15 327.552 632.842 327.757 632.487 327.916C632.142 328.065 631.792 328.14 631.437 328.14ZM639.019 328.14C638.384 328.14 637.82 328.019 637.325 327.776C636.83 327.524 636.452 327.221 636.191 326.866L636.723 326.404C636.975 326.74 637.302 327.001 637.703 327.188C638.104 327.365 638.557 327.454 639.061 327.454C639.341 327.454 639.598 327.426 639.831 327.37C640.064 327.305 640.26 327.216 640.419 327.104C640.587 326.992 640.718 326.857 640.811 326.698C640.904 326.53 640.951 326.343 640.951 326.138C640.951 325.774 640.778 325.466 640.433 325.214C640.274 325.102 640.074 324.999 639.831 324.906C639.588 324.813 639.304 324.719 638.977 324.626C638.482 324.477 638.062 324.337 637.717 324.206C637.372 324.075 637.096 323.912 636.891 323.716C636.742 323.557 636.63 323.389 636.555 323.212C636.48 323.025 636.443 322.825 636.443 322.61C636.443 322.311 636.504 322.041 636.625 321.798C636.746 321.546 636.919 321.327 637.143 321.14C637.367 320.953 637.628 320.813 637.927 320.72C638.226 320.617 638.557 320.566 638.921 320.566C639.266 320.566 639.607 320.617 639.943 320.72C640.279 320.813 640.592 320.949 640.881 321.126C641.17 321.303 641.422 321.509 641.637 321.742L641.161 322.26C640.974 322.055 640.769 321.873 640.545 321.714C640.33 321.555 640.092 321.434 639.831 321.35C639.57 321.257 639.28 321.21 638.963 321.21C638.711 321.21 638.473 321.243 638.249 321.308C638.034 321.373 637.848 321.471 637.689 321.602C637.53 321.723 637.404 321.868 637.311 322.036C637.227 322.195 637.185 322.372 637.185 322.568C637.185 322.717 637.213 322.853 637.269 322.974C637.325 323.086 637.414 323.193 637.535 323.296C637.694 323.427 637.904 323.539 638.165 323.632C638.436 323.725 638.767 323.828 639.159 323.94C639.514 324.033 639.826 324.127 640.097 324.22C640.368 324.313 640.601 324.425 640.797 324.556C641.096 324.743 641.315 324.962 641.455 325.214C641.604 325.466 641.679 325.755 641.679 326.082C641.679 326.483 641.567 326.838 641.343 327.146C641.119 327.454 640.806 327.697 640.405 327.874C640.004 328.051 639.542 328.14 639.019 328.14Z" fill="black"/>
<path d="M627.91 374V373.038H629.379V365.862H627.91V364.9H631.862V365.862H630.393V373.038H631.862V374H627.91ZM633.725 374V367.214H634.687L634.726 368.631L634.57 368.696C634.657 368.401 634.826 368.133 635.077 367.89C635.329 367.647 635.628 367.452 635.974 367.305C636.33 367.149 636.694 367.071 637.066 367.071C637.569 367.071 637.989 367.171 638.327 367.37C638.665 367.569 638.921 367.877 639.094 368.293C639.268 368.709 639.354 369.238 639.354 369.879V374H638.366V369.931C638.366 369.48 638.306 369.112 638.184 368.826C638.072 368.531 637.894 368.315 637.651 368.176C637.409 368.037 637.11 367.972 636.754 367.981C636.46 367.981 636.187 368.033 635.935 368.137C635.684 368.232 635.467 368.367 635.285 368.54C635.103 368.713 634.96 368.913 634.856 369.138C634.752 369.363 634.7 369.606 634.7 369.866V374H634.219C634.159 374 634.089 374 634.011 374C633.933 374 633.838 374 633.725 374ZM645.249 374V364.9H648.85C649.327 364.9 649.756 365.017 650.137 365.251C650.518 365.485 650.822 365.81 651.047 366.226C651.272 366.633 651.385 367.093 651.385 367.604C651.385 368.141 651.272 368.622 651.047 369.047C650.822 369.463 650.518 369.797 650.137 370.048C649.756 370.291 649.327 370.412 648.85 370.412H646.263V374H645.249ZM646.263 369.424H648.902C649.171 369.424 649.409 369.346 649.617 369.19C649.834 369.025 650.007 368.809 650.137 368.54C650.267 368.263 650.332 367.946 650.332 367.591C650.332 367.27 650.267 366.984 650.137 366.733C650.007 366.473 649.834 366.269 649.617 366.122C649.409 365.966 649.171 365.888 648.902 365.888H646.263V369.424ZM652.946 374V367.214H653.921L653.947 369.021L653.843 368.774C653.938 368.471 654.09 368.189 654.298 367.929C654.515 367.669 654.77 367.461 655.065 367.305C655.36 367.149 655.685 367.071 656.04 367.071C656.187 367.071 656.326 367.084 656.456 367.11C656.586 367.127 656.694 367.153 656.781 367.188L656.508 368.28C656.395 368.228 656.278 368.193 656.157 368.176C656.044 368.15 655.936 368.137 655.832 368.137C655.537 368.137 655.273 368.189 655.039 368.293C654.805 368.397 654.606 368.544 654.441 368.735C654.276 368.917 654.151 369.129 654.064 369.372C653.977 369.615 653.934 369.875 653.934 370.152V374H652.946ZM660.507 374.13C659.831 374.13 659.228 373.978 658.7 373.675C658.18 373.372 657.768 372.951 657.465 372.414C657.17 371.877 657.023 371.266 657.023 370.581C657.023 369.905 657.17 369.303 657.465 368.774C657.768 368.245 658.18 367.829 658.7 367.526C659.228 367.223 659.831 367.071 660.507 367.071C661.174 367.071 661.768 367.223 662.288 367.526C662.816 367.829 663.228 368.245 663.523 368.774C663.826 369.303 663.978 369.905 663.978 370.581C663.978 371.266 663.826 371.877 663.523 372.414C663.228 372.951 662.816 373.372 662.288 373.675C661.768 373.978 661.174 374.13 660.507 374.13ZM660.507 373.207C660.983 373.207 661.408 373.094 661.781 372.869C662.153 372.635 662.444 372.323 662.652 371.933C662.86 371.534 662.964 371.084 662.964 370.581C662.964 370.078 662.86 369.632 662.652 369.242C662.444 368.852 662.153 368.549 661.781 368.332C661.408 368.107 660.983 367.994 660.507 367.994C660.03 367.994 659.601 368.107 659.22 368.332C658.847 368.549 658.552 368.856 658.336 369.255C658.128 369.645 658.028 370.087 658.037 370.581C658.028 371.084 658.128 371.534 658.336 371.933C658.552 372.323 658.847 372.635 659.22 372.869C659.601 373.094 660.03 373.207 660.507 373.207ZM668.325 376.99C667.823 376.99 667.346 376.912 666.895 376.756C666.445 376.6 666.072 376.405 665.777 376.171L666.167 375.352C666.341 375.491 666.54 375.612 666.765 375.716C666.999 375.829 667.251 375.915 667.519 375.976C667.788 376.045 668.061 376.08 668.338 376.08C668.841 376.08 669.266 375.985 669.612 375.794C669.968 375.612 670.236 375.339 670.418 374.975C670.609 374.611 670.704 374.16 670.704 373.623V372.323L670.86 372.284C670.782 372.613 670.613 372.921 670.353 373.207C670.093 373.484 669.777 373.71 669.404 373.883C669.032 374.048 668.637 374.13 668.221 374.13C667.589 374.13 667.021 373.978 666.518 373.675C666.024 373.372 665.634 372.956 665.348 372.427C665.062 371.89 664.919 371.283 664.919 370.607C664.919 369.922 665.062 369.316 665.348 368.787C665.643 368.25 666.037 367.829 666.531 367.526C667.025 367.223 667.58 367.071 668.195 367.071C668.464 367.071 668.724 367.106 668.975 367.175C669.227 367.236 669.456 367.327 669.664 367.448C669.881 367.569 670.076 367.708 670.249 367.864C670.423 368.02 670.566 368.189 670.678 368.371C670.8 368.553 670.886 368.739 670.938 368.93L670.665 368.891L670.704 367.214H671.679V373.584C671.679 374.13 671.601 374.611 671.445 375.027C671.289 375.452 671.06 375.807 670.756 376.093C670.462 376.388 670.106 376.609 669.69 376.756C669.283 376.912 668.828 376.99 668.325 376.99ZM668.338 373.194C668.798 373.194 669.205 373.086 669.56 372.869C669.924 372.644 670.21 372.336 670.418 371.946C670.626 371.556 670.73 371.105 670.73 370.594C670.73 370.091 670.626 369.645 670.418 369.255C670.219 368.865 669.937 368.557 669.573 368.332C669.209 368.107 668.798 367.994 668.338 367.994C667.87 367.994 667.454 368.107 667.09 368.332C666.735 368.557 666.453 368.865 666.245 369.255C666.037 369.645 665.933 370.091 665.933 370.594C665.933 371.088 666.033 371.534 666.232 371.933C666.44 372.323 666.722 372.631 667.077 372.856C667.441 373.081 667.862 373.194 668.338 373.194ZM673.576 374V367.214H674.551L674.577 369.021L674.473 368.774C674.568 368.471 674.72 368.189 674.928 367.929C675.145 367.669 675.4 367.461 675.695 367.305C675.99 367.149 676.315 367.071 676.67 367.071C676.817 367.071 676.956 367.084 677.086 367.11C677.216 367.127 677.324 367.153 677.411 367.188L677.138 368.28C677.025 368.228 676.908 368.193 676.787 368.176C676.674 368.15 676.566 368.137 676.462 368.137C676.167 368.137 675.903 368.189 675.669 368.293C675.435 368.397 675.236 368.544 675.071 368.735C674.906 368.917 674.781 369.129 674.694 369.372C674.607 369.615 674.564 369.875 674.564 370.152V374H673.576ZM681.124 374.13C680.448 374.13 679.845 373.983 679.317 373.688C678.797 373.393 678.389 372.982 678.095 372.453C677.8 371.924 677.653 371.318 677.653 370.633C677.653 370.104 677.735 369.628 677.9 369.203C678.064 368.77 678.294 368.393 678.589 368.072C678.892 367.751 679.252 367.504 679.668 367.331C680.084 367.149 680.534 367.058 681.02 367.058C681.479 367.058 681.895 367.14 682.268 367.305C682.649 367.47 682.974 367.699 683.243 367.994C683.52 368.28 683.728 368.622 683.867 369.021C684.005 369.42 684.066 369.857 684.049 370.334L684.036 370.789H678.381L678.238 369.97H683.295L683.061 370.191V369.879C683.043 369.567 682.952 369.268 682.788 368.982C682.623 368.687 682.389 368.449 682.086 368.267C681.791 368.085 681.436 367.994 681.02 367.994C680.534 367.994 680.114 368.094 679.759 368.293C679.403 368.484 679.13 368.77 678.94 369.151C678.749 369.532 678.654 370.005 678.654 370.568C678.654 371.105 678.758 371.573 678.966 371.972C679.174 372.362 679.468 372.665 679.85 372.882C680.24 373.099 680.708 373.207 681.254 373.207C681.574 373.207 681.891 373.155 682.203 373.051C682.523 372.938 682.874 372.722 683.256 372.401L683.763 373.103C683.563 373.302 683.325 373.48 683.048 373.636C682.77 373.783 682.467 373.905 682.138 374C681.808 374.087 681.47 374.13 681.124 374.13ZM687.656 374.13C687.076 374.13 686.556 374.022 686.096 373.805C685.637 373.588 685.273 373.302 685.004 372.947L685.693 372.349C685.945 372.652 686.239 372.882 686.577 373.038C686.924 373.194 687.31 373.272 687.734 373.272C687.951 373.272 688.146 373.25 688.319 373.207C688.493 373.155 688.644 373.081 688.774 372.986C688.904 372.891 689.004 372.778 689.073 372.648C689.143 372.518 689.177 372.375 689.177 372.219C689.177 371.933 689.052 371.695 688.8 371.504C688.688 371.426 688.527 371.348 688.319 371.27C688.111 371.183 687.86 371.101 687.565 371.023C687.08 370.884 686.677 370.746 686.356 370.607C686.036 370.46 685.784 370.291 685.602 370.1C685.472 369.944 685.373 369.775 685.303 369.593C685.243 369.411 685.212 369.212 685.212 368.995C685.212 368.718 685.269 368.462 685.381 368.228C685.503 367.994 685.667 367.79 685.875 367.617C686.092 367.435 686.343 367.301 686.629 367.214C686.924 367.119 687.24 367.071 687.578 367.071C687.899 367.071 688.215 367.114 688.527 367.201C688.839 367.288 689.13 367.413 689.398 367.578C689.667 367.743 689.897 367.938 690.087 368.163L689.489 368.813C689.325 368.64 689.143 368.484 688.943 368.345C688.744 368.206 688.532 368.098 688.306 368.02C688.09 367.942 687.864 367.903 687.63 367.903C687.422 367.903 687.227 367.929 687.045 367.981C686.872 368.033 686.72 368.107 686.59 368.202C686.469 368.289 686.374 368.397 686.304 368.527C686.244 368.657 686.213 368.8 686.213 368.956C686.213 369.086 686.239 369.203 686.291 369.307C686.343 369.411 686.417 369.502 686.512 369.58C686.634 369.675 686.803 369.766 687.019 369.853C687.245 369.931 687.522 370.013 687.851 370.1C688.233 370.204 688.553 370.312 688.813 370.425C689.082 370.529 689.303 370.655 689.476 370.802C689.71 370.975 689.875 371.175 689.97 371.4C690.074 371.625 690.126 371.881 690.126 372.167C690.126 372.548 690.018 372.886 689.801 373.181C689.593 373.476 689.303 373.71 688.93 373.883C688.558 374.048 688.133 374.13 687.656 374.13ZM693.877 374.13C693.296 374.13 692.776 374.022 692.317 373.805C691.858 373.588 691.494 373.302 691.225 372.947L691.914 372.349C692.165 372.652 692.46 372.882 692.798 373.038C693.145 373.194 693.53 373.272 693.955 373.272C694.172 373.272 694.367 373.25 694.54 373.207C694.713 373.155 694.865 373.081 694.995 372.986C695.125 372.891 695.225 372.778 695.294 372.648C695.363 372.518 695.398 372.375 695.398 372.219C695.398 371.933 695.272 371.695 695.021 371.504C694.908 371.426 694.748 371.348 694.54 371.27C694.332 371.183 694.081 371.101 693.786 371.023C693.301 370.884 692.898 370.746 692.577 370.607C692.256 370.46 692.005 370.291 691.823 370.1C691.693 369.944 691.593 369.775 691.524 369.593C691.463 369.411 691.433 369.212 691.433 368.995C691.433 368.718 691.489 368.462 691.602 368.228C691.723 367.994 691.888 367.79 692.096 367.617C692.313 367.435 692.564 367.301 692.85 367.214C693.145 367.119 693.461 367.071 693.799 367.071C694.12 367.071 694.436 367.114 694.748 367.201C695.06 367.288 695.35 367.413 695.619 367.578C695.888 367.743 696.117 367.938 696.308 368.163L695.71 368.813C695.545 368.64 695.363 368.484 695.164 368.345C694.965 368.206 694.752 368.098 694.527 368.02C694.31 367.942 694.085 367.903 693.851 367.903C693.643 367.903 693.448 367.929 693.266 367.981C693.093 368.033 692.941 368.107 692.811 368.202C692.69 368.289 692.594 368.397 692.525 368.527C692.464 368.657 692.434 368.8 692.434 368.956C692.434 369.086 692.46 369.203 692.512 369.307C692.564 369.411 692.638 369.502 692.733 369.58C692.854 369.675 693.023 369.766 693.24 369.853C693.465 369.931 693.743 370.013 694.072 370.1C694.453 370.204 694.774 370.312 695.034 370.425C695.303 370.529 695.524 370.655 695.697 370.802C695.931 370.975 696.096 371.175 696.191 371.4C696.295 371.625 696.347 371.881 696.347 372.167C696.347 372.548 696.239 372.886 696.022 373.181C695.814 373.476 695.524 373.71 695.151 373.883C694.778 374.048 694.354 374.13 693.877 374.13Z" fill="#6C826C"/>
<path d="M627.91 426V425.038H629.379V417.862H627.91V416.9H631.862V417.862H630.393V425.038H631.862V426H627.91ZM633.725 426V419.214H634.687L634.726 420.631L634.57 420.696C634.657 420.401 634.826 420.133 635.077 419.89C635.329 419.647 635.628 419.452 635.974 419.305C636.33 419.149 636.694 419.071 637.066 419.071C637.569 419.071 637.989 419.171 638.327 419.37C638.665 419.569 638.921 419.877 639.094 420.293C639.268 420.709 639.354 421.238 639.354 421.879V426H638.366V421.931C638.366 421.48 638.306 421.112 638.184 420.826C638.072 420.531 637.894 420.315 637.651 420.176C637.409 420.037 637.11 419.972 636.754 419.981C636.46 419.981 636.187 420.033 635.935 420.137C635.684 420.232 635.467 420.367 635.285 420.54C635.103 420.713 634.96 420.913 634.856 421.138C634.752 421.363 634.7 421.606 634.7 421.866V426H634.219C634.159 426 634.089 426 634.011 426C633.933 426 633.838 426 633.725 426ZM645.249 426V416.9H648.85C649.327 416.9 649.756 417.017 650.137 417.251C650.518 417.485 650.822 417.81 651.047 418.226C651.272 418.633 651.385 419.093 651.385 419.604C651.385 420.141 651.272 420.622 651.047 421.047C650.822 421.463 650.518 421.797 650.137 422.048C649.756 422.291 649.327 422.412 648.85 422.412H646.263V426H645.249ZM646.263 421.424H648.902C649.171 421.424 649.409 421.346 649.617 421.19C649.834 421.025 650.007 420.809 650.137 420.54C650.267 420.263 650.332 419.946 650.332 419.591C650.332 419.27 650.267 418.984 650.137 418.733C650.007 418.473 649.834 418.269 649.617 418.122C649.409 417.966 649.171 417.888 648.902 417.888H646.263V421.424ZM652.946 426V419.214H653.921L653.947 421.021L653.843 420.774C653.938 420.471 654.09 420.189 654.298 419.929C654.515 419.669 654.77 419.461 655.065 419.305C655.36 419.149 655.685 419.071 656.04 419.071C656.187 419.071 656.326 419.084 656.456 419.11C656.586 419.127 656.694 419.153 656.781 419.188L656.508 420.28C656.395 420.228 656.278 420.193 656.157 420.176C656.044 420.15 655.936 420.137 655.832 420.137C655.537 420.137 655.273 420.189 655.039 420.293C654.805 420.397 654.606 420.544 654.441 420.735C654.276 420.917 654.151 421.129 654.064 421.372C653.977 421.615 653.934 421.875 653.934 422.152V426H652.946ZM660.507 426.13C659.831 426.13 659.228 425.978 658.7 425.675C658.18 425.372 657.768 424.951 657.465 424.414C657.17 423.877 657.023 423.266 657.023 422.581C657.023 421.905 657.17 421.303 657.465 420.774C657.768 420.245 658.18 419.829 658.7 419.526C659.228 419.223 659.831 419.071 660.507 419.071C661.174 419.071 661.768 419.223 662.288 419.526C662.816 419.829 663.228 420.245 663.523 420.774C663.826 421.303 663.978 421.905 663.978 422.581C663.978 423.266 663.826 423.877 663.523 424.414C663.228 424.951 662.816 425.372 662.288 425.675C661.768 425.978 661.174 426.13 660.507 426.13ZM660.507 425.207C660.983 425.207 661.408 425.094 661.781 424.869C662.153 424.635 662.444 424.323 662.652 423.933C662.86 423.534 662.964 423.084 662.964 422.581C662.964 422.078 662.86 421.632 662.652 421.242C662.444 420.852 662.153 420.549 661.781 420.332C661.408 420.107 660.983 419.994 660.507 419.994C660.03 419.994 659.601 420.107 659.22 420.332C658.847 420.549 658.552 420.856 658.336 421.255C658.128 421.645 658.028 422.087 658.037 422.581C658.028 423.084 658.128 423.534 658.336 423.933C658.552 424.323 658.847 424.635 659.22 424.869C659.601 425.094 660.03 425.207 660.507 425.207ZM668.325 428.99C667.823 428.99 667.346 428.912 666.895 428.756C666.445 428.6 666.072 428.405 665.777 428.171L666.167 427.352C666.341 427.491 666.54 427.612 666.765 427.716C666.999 427.829 667.251 427.915 667.519 427.976C667.788 428.045 668.061 428.08 668.338 428.08C668.841 428.08 669.266 427.985 669.612 427.794C669.968 427.612 670.236 427.339 670.418 426.975C670.609 426.611 670.704 426.16 670.704 425.623V424.323L670.86 424.284C670.782 424.613 670.613 424.921 670.353 425.207C670.093 425.484 669.777 425.71 669.404 425.883C669.032 426.048 668.637 426.13 668.221 426.13C667.589 426.13 667.021 425.978 666.518 425.675C666.024 425.372 665.634 424.956 665.348 424.427C665.062 423.89 664.919 423.283 664.919 422.607C664.919 421.922 665.062 421.316 665.348 420.787C665.643 420.25 666.037 419.829 666.531 419.526C667.025 419.223 667.58 419.071 668.195 419.071C668.464 419.071 668.724 419.106 668.975 419.175C669.227 419.236 669.456 419.327 669.664 419.448C669.881 419.569 670.076 419.708 670.249 419.864C670.423 420.02 670.566 420.189 670.678 420.371C670.8 420.553 670.886 420.739 670.938 420.93L670.665 420.891L670.704 419.214H671.679V425.584C671.679 426.13 671.601 426.611 671.445 427.027C671.289 427.452 671.06 427.807 670.756 428.093C670.462 428.388 670.106 428.609 669.69 428.756C669.283 428.912 668.828 428.99 668.325 428.99ZM668.338 425.194C668.798 425.194 669.205 425.086 669.56 424.869C669.924 424.644 670.21 424.336 670.418 423.946C670.626 423.556 670.73 423.105 670.73 422.594C670.73 422.091 670.626 421.645 670.418 421.255C670.219 420.865 669.937 420.557 669.573 420.332C669.209 420.107 668.798 419.994 668.338 419.994C667.87 419.994 667.454 420.107 667.09 420.332C666.735 420.557 666.453 420.865 666.245 421.255C666.037 421.645 665.933 422.091 665.933 422.594C665.933 423.088 666.033 423.534 666.232 423.933C666.44 424.323 666.722 424.631 667.077 424.856C667.441 425.081 667.862 425.194 668.338 425.194ZM673.576 426V419.214H674.551L674.577 421.021L674.473 420.774C674.568 420.471 674.72 420.189 674.928 419.929C675.145 419.669 675.4 419.461 675.695 419.305C675.99 419.149 676.315 419.071 676.67 419.071C676.817 419.071 676.956 419.084 677.086 419.11C677.216 419.127 677.324 419.153 677.411 419.188L677.138 420.28C677.025 420.228 676.908 420.193 676.787 420.176C676.674 420.15 676.566 420.137 676.462 420.137C676.167 420.137 675.903 420.189 675.669 420.293C675.435 420.397 675.236 420.544 675.071 420.735C674.906 420.917 674.781 421.129 674.694 421.372C674.607 421.615 674.564 421.875 674.564 422.152V426H673.576ZM681.124 426.13C680.448 426.13 679.845 425.983 679.317 425.688C678.797 425.393 678.389 424.982 678.095 424.453C677.8 423.924 677.653 423.318 677.653 422.633C677.653 422.104 677.735 421.628 677.9 421.203C678.064 420.77 678.294 420.393 678.589 420.072C678.892 419.751 679.252 419.504 679.668 419.331C680.084 419.149 680.534 419.058 681.02 419.058C681.479 419.058 681.895 419.14 682.268 419.305C682.649 419.47 682.974 419.699 683.243 419.994C683.52 420.28 683.728 420.622 683.867 421.021C684.005 421.42 684.066 421.857 684.049 422.334L684.036 422.789H678.381L678.238 421.97H683.295L683.061 422.191V421.879C683.043 421.567 682.952 421.268 682.788 420.982C682.623 420.687 682.389 420.449 682.086 420.267C681.791 420.085 681.436 419.994 681.02 419.994C680.534 419.994 680.114 420.094 679.759 420.293C679.403 420.484 679.13 420.77 678.94 421.151C678.749 421.532 678.654 422.005 678.654 422.568C678.654 423.105 678.758 423.573 678.966 423.972C679.174 424.362 679.468 424.665 679.85 424.882C680.24 425.099 680.708 425.207 681.254 425.207C681.574 425.207 681.891 425.155 682.203 425.051C682.523 424.938 682.874 424.722 683.256 424.401L683.763 425.103C683.563 425.302 683.325 425.48 683.048 425.636C682.77 425.783 682.467 425.905 682.138 426C681.808 426.087 681.47 426.13 681.124 426.13ZM687.656 426.13C687.076 426.13 686.556 426.022 686.096 425.805C685.637 425.588 685.273 425.302 685.004 424.947L685.693 424.349C685.945 424.652 686.239 424.882 686.577 425.038C686.924 425.194 687.31 425.272 687.734 425.272C687.951 425.272 688.146 425.25 688.319 425.207C688.493 425.155 688.644 425.081 688.774 424.986C688.904 424.891 689.004 424.778 689.073 424.648C689.143 424.518 689.177 424.375 689.177 424.219C689.177 423.933 689.052 423.695 688.8 423.504C688.688 423.426 688.527 423.348 688.319 423.27C688.111 423.183 687.86 423.101 687.565 423.023C687.08 422.884 686.677 422.746 686.356 422.607C686.036 422.46 685.784 422.291 685.602 422.1C685.472 421.944 685.373 421.775 685.303 421.593C685.243 421.411 685.212 421.212 685.212 420.995C685.212 420.718 685.269 420.462 685.381 420.228C685.503 419.994 685.667 419.79 685.875 419.617C686.092 419.435 686.343 419.301 686.629 419.214C686.924 419.119 687.24 419.071 687.578 419.071C687.899 419.071 688.215 419.114 688.527 419.201C688.839 419.288 689.13 419.413 689.398 419.578C689.667 419.743 689.897 419.938 690.087 420.163L689.489 420.813C689.325 420.64 689.143 420.484 688.943 420.345C688.744 420.206 688.532 420.098 688.306 420.02C688.09 419.942 687.864 419.903 687.63 419.903C687.422 419.903 687.227 419.929 687.045 419.981C686.872 420.033 686.72 420.107 686.59 420.202C686.469 420.289 686.374 420.397 686.304 420.527C686.244 420.657 686.213 420.8 686.213 420.956C686.213 421.086 686.239 421.203 686.291 421.307C686.343 421.411 686.417 421.502 686.512 421.58C686.634 421.675 686.803 421.766 687.019 421.853C687.245 421.931 687.522 422.013 687.851 422.1C688.233 422.204 688.553 422.312 688.813 422.425C689.082 422.529 689.303 422.655 689.476 422.802C689.71 422.975 689.875 423.175 689.97 423.4C690.074 423.625 690.126 423.881 690.126 424.167C690.126 424.548 690.018 424.886 689.801 425.181C689.593 425.476 689.303 425.71 688.93 425.883C688.558 426.048 688.133 426.13 687.656 426.13ZM693.877 426.13C693.296 426.13 692.776 426.022 692.317 425.805C691.858 425.588 691.494 425.302 691.225 424.947L691.914 424.349C692.165 424.652 692.46 424.882 692.798 425.038C693.145 425.194 693.53 425.272 693.955 425.272C694.172 425.272 694.367 425.25 694.54 425.207C694.713 425.155 694.865 425.081 694.995 424.986C695.125 424.891 695.225 424.778 695.294 424.648C695.363 424.518 695.398 424.375 695.398 424.219C695.398 423.933 695.272 423.695 695.021 423.504C694.908 423.426 694.748 423.348 694.54 423.27C694.332 423.183 694.081 423.101 693.786 423.023C693.301 422.884 692.898 422.746 692.577 422.607C692.256 422.46 692.005 422.291 691.823 422.1C691.693 421.944 691.593 421.775 691.524 421.593C691.463 421.411 691.433 421.212 691.433 420.995C691.433 420.718 691.489 420.462 691.602 420.228C691.723 419.994 691.888 419.79 692.096 419.617C692.313 419.435 692.564 419.301 692.85 419.214C693.145 419.119 693.461 419.071 693.799 419.071C694.12 419.071 694.436 419.114 694.748 419.201C695.06 419.288 695.35 419.413 695.619 419.578C695.888 419.743 696.117 419.938 696.308 420.163L695.71 420.813C695.545 420.64 695.363 420.484 695.164 420.345C694.965 420.206 694.752 420.098 694.527 420.02C694.31 419.942 694.085 419.903 693.851 419.903C693.643 419.903 693.448 419.929 693.266 419.981C693.093 420.033 692.941 420.107 692.811 420.202C692.69 420.289 692.594 420.397 692.525 420.527C692.464 420.657 692.434 420.8 692.434 420.956C692.434 421.086 692.46 421.203 692.512 421.307C692.564 421.411 692.638 421.502 692.733 421.58C692.854 421.675 693.023 421.766 693.24 421.853C693.465 421.931 693.743 422.013 694.072 422.1C694.453 422.204 694.774 422.312 695.034 422.425C695.303 422.529 695.524 422.655 695.697 422.802C695.931 422.975 696.096 423.175 696.191 423.4C696.295 423.625 696.347 423.881 696.347 424.167C696.347 424.548 696.239 424.886 696.022 425.181C695.814 425.476 695.524 425.71 695.151 425.883C694.778 426.048 694.354 426.13 693.877 426.13Z" fill="#6C826C"/>
<path d="M638.412 474V464.9H642.013C642.489 464.9 642.918 465.017 643.3 465.251C643.681 465.485 643.984 465.81 644.21 466.226C644.435 466.633 644.548 467.093 644.548 467.604C644.548 468.141 644.435 468.622 644.21 469.047C643.984 469.463 643.681 469.797 643.3 470.048C642.918 470.291 642.489 470.412 642.013 470.412H639.426V474H638.412ZM639.426 469.424H642.065C642.333 469.424 642.572 469.346 642.78 469.19C642.996 469.025 643.17 468.809 643.3 468.54C643.43 468.263 643.495 467.946 643.495 467.591C643.495 467.27 643.43 466.984 643.3 466.733C643.17 466.473 642.996 466.269 642.78 466.122C642.572 465.966 642.333 465.888 642.065 465.888H639.426V469.424ZM648.972 474.13C648.296 474.13 647.693 473.983 647.165 473.688C646.645 473.393 646.237 472.982 645.943 472.453C645.648 471.924 645.501 471.318 645.501 470.633C645.501 470.104 645.583 469.628 645.748 469.203C645.912 468.77 646.142 468.393 646.437 468.072C646.74 467.751 647.1 467.504 647.516 467.331C647.932 467.149 648.382 467.058 648.868 467.058C649.327 467.058 649.743 467.14 650.116 467.305C650.497 467.47 650.822 467.699 651.091 467.994C651.368 468.28 651.576 468.622 651.715 469.021C651.853 469.42 651.914 469.857 651.897 470.334L651.884 470.789H646.229L646.086 469.97H651.143L650.909 470.191V469.879C650.891 469.567 650.8 469.268 650.636 468.982C650.471 468.687 650.237 468.449 649.934 468.267C649.639 468.085 649.284 467.994 648.868 467.994C648.382 467.994 647.962 468.094 647.607 468.293C647.251 468.484 646.978 468.77 646.788 469.151C646.597 469.532 646.502 470.005 646.502 470.568C646.502 471.105 646.606 471.573 646.814 471.972C647.022 472.362 647.316 472.665 647.698 472.882C648.088 473.099 648.556 473.207 649.102 473.207C649.422 473.207 649.739 473.155 650.051 473.051C650.371 472.938 650.722 472.722 651.104 472.401L651.611 473.103C651.411 473.302 651.173 473.48 650.896 473.636C650.618 473.783 650.315 473.905 649.986 474C649.656 474.087 649.318 474.13 648.972 474.13ZM653.282 474V467.214H654.244L654.283 468.631L654.127 468.696C654.213 468.401 654.382 468.133 654.634 467.89C654.885 467.647 655.184 467.452 655.531 467.305C655.886 467.149 656.25 467.071 656.623 467.071C657.125 467.071 657.546 467.171 657.884 467.37C658.222 467.569 658.477 467.877 658.651 468.293C658.824 468.709 658.911 469.238 658.911 469.879V474H657.923V469.931C657.923 469.48 657.862 469.112 657.741 468.826C657.628 468.531 657.45 468.315 657.208 468.176C656.965 468.037 656.666 467.972 656.311 467.981C656.016 467.981 655.743 468.033 655.492 468.137C655.24 468.232 655.024 468.367 654.842 468.54C654.66 468.713 654.517 468.913 654.413 469.138C654.309 469.363 654.257 469.606 654.257 469.866V474H653.776C653.715 474 653.646 474 653.568 474C653.49 474 653.394 474 653.282 474ZM663.528 474.13C662.912 474.13 662.358 473.978 661.864 473.675C661.378 473.372 660.993 472.956 660.707 472.427C660.429 471.89 660.291 471.283 660.291 470.607C660.291 469.922 660.434 469.316 660.72 468.787C661.006 468.25 661.391 467.829 661.877 467.526C662.362 467.223 662.908 467.071 663.515 467.071C663.853 467.071 664.178 467.123 664.49 467.227C664.81 467.331 665.096 467.478 665.348 467.669C665.599 467.851 665.807 468.063 665.972 468.306C666.136 468.54 666.236 468.787 666.271 469.047L665.972 468.943V464.38H666.947V474H665.985L665.959 472.31L666.206 472.219C666.171 472.462 666.071 472.7 665.907 472.934C665.751 473.159 665.551 473.363 665.309 473.545C665.066 473.727 664.789 473.87 664.477 473.974C664.173 474.078 663.857 474.13 663.528 474.13ZM663.671 473.233C664.121 473.233 664.524 473.12 664.88 472.895C665.235 472.67 665.512 472.358 665.712 471.959C665.92 471.56 666.024 471.105 666.024 470.594C666.024 470.083 665.92 469.632 665.712 469.242C665.512 468.843 665.235 468.531 664.88 468.306C664.524 468.072 664.121 467.955 663.671 467.955C663.203 467.955 662.791 468.072 662.436 468.306C662.089 468.531 661.812 468.843 661.604 469.242C661.404 469.632 661.305 470.083 661.305 470.594C661.305 471.097 661.404 471.547 661.604 471.946C661.803 472.345 662.08 472.661 662.436 472.895C662.791 473.12 663.203 473.233 663.671 473.233ZM669.106 474V467.214H670.081V474H669.106ZM669.587 465.745C669.344 465.745 669.158 465.684 669.028 465.563C668.907 465.433 668.846 465.26 668.846 465.043C668.846 464.826 668.911 464.653 669.041 464.523C669.171 464.393 669.353 464.328 669.587 464.328C669.821 464.328 670.003 464.393 670.133 464.523C670.263 464.644 670.328 464.818 670.328 465.043C670.328 465.251 670.263 465.42 670.133 465.55C670.003 465.68 669.821 465.745 669.587 465.745ZM672.21 474V467.214H673.172L673.211 468.631L673.055 468.696C673.142 468.401 673.311 468.133 673.562 467.89C673.814 467.647 674.113 467.452 674.459 467.305C674.815 467.149 675.179 467.071 675.551 467.071C676.054 467.071 676.474 467.171 676.812 467.37C677.15 467.569 677.406 467.877 677.579 468.293C677.753 468.709 677.839 469.238 677.839 469.879V474H676.851V469.931C676.851 469.48 676.791 469.112 676.669 468.826C676.557 468.531 676.379 468.315 676.136 468.176C675.894 468.037 675.595 467.972 675.239 467.981C674.945 467.981 674.672 468.033 674.42 468.137C674.169 468.232 673.952 468.367 673.77 468.54C673.588 468.713 673.445 468.913 673.341 469.138C673.237 469.363 673.185 469.606 673.185 469.866V474H672.704C672.644 474 672.574 474 672.496 474C672.418 474 672.323 474 672.21 474ZM682.625 476.99C682.123 476.99 681.646 476.912 681.195 476.756C680.745 476.6 680.372 476.405 680.077 476.171L680.467 475.352C680.641 475.491 680.84 475.612 681.065 475.716C681.299 475.829 681.551 475.915 681.819 475.976C682.088 476.045 682.361 476.08 682.638 476.08C683.141 476.08 683.566 475.985 683.912 475.794C684.268 475.612 684.536 475.339 684.718 474.975C684.909 474.611 685.004 474.16 685.004 473.623V472.323L685.16 472.284C685.082 472.613 684.913 472.921 684.653 473.207C684.393 473.484 684.077 473.71 683.704 473.883C683.332 474.048 682.937 474.13 682.521 474.13C681.889 474.13 681.321 473.978 680.818 473.675C680.324 473.372 679.934 472.956 679.648 472.427C679.362 471.89 679.219 471.283 679.219 470.607C679.219 469.922 679.362 469.316 679.648 468.787C679.943 468.25 680.337 467.829 680.831 467.526C681.325 467.223 681.88 467.071 682.495 467.071C682.764 467.071 683.024 467.106 683.275 467.175C683.527 467.236 683.756 467.327 683.964 467.448C684.181 467.569 684.376 467.708 684.549 467.864C684.723 468.02 684.866 468.189 684.978 468.371C685.1 468.553 685.186 468.739 685.238 468.93L684.965 468.891L685.004 467.214H685.979V473.584C685.979 474.13 685.901 474.611 685.745 475.027C685.589 475.452 685.36 475.807 685.056 476.093C684.762 476.388 684.406 476.609 683.99 476.756C683.583 476.912 683.128 476.99 682.625 476.99ZM682.638 473.194C683.098 473.194 683.505 473.086 683.86 472.869C684.224 472.644 684.51 472.336 684.718 471.946C684.926 471.556 685.03 471.105 685.03 470.594C685.03 470.091 684.926 469.645 684.718 469.255C684.519 468.865 684.237 468.557 683.873 468.332C683.509 468.107 683.098 467.994 682.638 467.994C682.17 467.994 681.754 468.107 681.39 468.332C681.035 468.557 680.753 468.865 680.545 469.255C680.337 469.645 680.233 470.091 680.233 470.594C680.233 471.088 680.333 471.534 680.532 471.933C680.74 472.323 681.022 472.631 681.377 472.856C681.741 473.081 682.162 473.194 682.638 473.194Z" fill="#948766"/>
<circle cx="54" cy="138" r="43" fill="#FFCC1B"/>
<circle cx="43" cy="135" r="42.5" stroke="black"/>
<rect x="764.102" y="58" width="100" height="100" rx="23" transform="rotate(26.8089 764.102 58)" fill="#9889E1"/>
<rect x="751.322" y="51.6718" width="99" height="99" rx="22.5" transform="rotate(26.8089 751.322 51.6718)" stroke="black"/>
<defs>
<filter id="filter0_i_229_4" x="325" y="0" width="181" height="185" filterUnits="userSpaceOnUse" color-interpolation-filters="sRGB">
<feFlood flood-opacity="0" result="BackgroundImageFix"/>
<feBlend mode="normal" in="SourceGraphic" in2="BackgroundImageFix" result="shape"/>
<feColorMatrix in="SourceAlpha" type="matrix" values="0 0 0 0 0 0 0 0 0 0 0 0 0 0 0 0 0 0 127 0" result="hardAlpha"/>
<feOffset dy="4"/>
<feGaussianBlur stdDeviation="2"/>
<feComposite in2="hardAlpha" operator="arithmetic" k2="-1" k3="1"/>
<feColorMatrix type="matrix" values="0 0 0 0 0 0 0 0 0 0 0 0 0 0 0 0 0 0 0.25 0"/>
<feBlend mode="normal" in2="shape" result="effect1_innerShadow_229_4"/>
</filter>
<linearGradient id="paint0_linear_229_4" x1="86" y1="208" x2="277" y2="208" gradientUnits="userSpaceOnUse">
<stop stop-color="#F3F3F3"/>
<stop offset="1" stop-color="#FAFAFA"/>
</linearGradient>
<linearGradient id="paint1_linear_229_4" x1="86" y1="419" x2="736" y2="419" gradientUnits="userSpaceOnUse">
<stop stop-color="#F3F3F3"/>
<stop offset="1" stop-color="#FAFAFA"/>
</linearGradient>
</defs>
</svg>
