<svg width="291" height="80" viewBox="0 0 291 80" fill="none" xmlns="http://www.w3.org/2000/svg">
<path d="M16.384 64.64C14.9333 64.64 13.5467 64.448 12.224 64.064C10.9013 63.68 9.664 63.1253 8.512 62.4C7.40267 61.6747 6.4 60.8213 5.504 59.84C4.608 58.816 3.84 57.7067 3.2 56.512L7.552 51.968C8.448 53.248 9.25867 54.272 9.984 55.04C10.752 55.808 11.4773 56.4053 12.16 56.832C12.8427 57.2587 13.5253 57.5573 14.208 57.728C14.8907 57.856 15.616 57.92 16.384 57.92C17.92 57.92 19.264 57.5787 20.416 56.896C21.568 56.1707 22.464 55.1893 23.104 53.952C23.744 52.7147 24.064 51.3067 24.064 49.728V25.6H15.872V19.2H37.888V25.6H30.976V50.368C30.976 52.416 30.6133 54.3147 29.888 56.064C29.2053 57.7707 28.2027 59.264 26.88 60.544C25.6 61.824 24.064 62.8267 22.272 63.552C20.5227 64.2773 18.56 64.64 16.384 64.64ZM57.587 64.64C54.3017 64.64 51.3577 63.8933 48.755 62.4C46.195 60.864 44.1683 58.7947 42.675 56.192C41.1817 53.5467 40.435 50.5387 40.435 47.168C40.435 43.7973 41.1817 40.8107 42.675 38.208C44.1683 35.5627 46.195 33.4933 48.755 32C51.3577 30.464 54.3017 29.696 57.587 29.696C60.8297 29.696 63.731 30.464 66.291 32C68.8937 33.4933 70.9417 35.5627 72.435 38.208C73.9283 40.8107 74.675 43.7973 74.675 47.168C74.675 50.5387 73.9283 53.5467 72.435 56.192C70.9417 58.7947 68.8937 60.864 66.291 62.4C63.731 63.8933 60.8297 64.64 57.587 64.64ZM57.587 58.624C59.5923 58.624 61.3843 58.1333 62.963 57.152C64.5417 56.128 65.779 54.7627 66.675 53.056C67.571 51.3067 67.9977 49.344 67.955 47.168C67.9977 44.9493 67.571 42.9867 66.675 41.28C65.779 39.5307 64.5417 38.1653 62.963 37.184C61.3843 36.2027 59.5923 35.712 57.587 35.712C55.5817 35.712 53.7683 36.224 52.147 37.248C50.5683 38.2293 49.331 39.5947 48.435 41.344C47.539 43.0507 47.1123 44.992 47.155 47.168C47.1123 49.344 47.539 51.3067 48.435 53.056C49.331 54.7627 50.5683 56.128 52.147 57.152C53.7683 58.1333 55.5817 58.624 57.587 58.624ZM99.522 64.64C98.0713 64.64 96.6207 64.4053 95.17 63.936C93.762 63.4667 92.4607 62.848 91.266 62.08C90.114 61.2693 89.1327 60.3947 88.322 59.456C87.554 58.4747 87.042 57.4933 86.786 56.512L88.45 55.616V63.808H81.858V16.64H88.45V38.08L87.426 37.504C87.6393 36.5227 88.1087 35.584 88.834 34.688C89.5593 33.7493 90.4767 32.9173 91.586 32.192C92.738 31.424 93.9753 30.8267 95.298 30.4C96.6207 29.9307 97.9647 29.696 99.33 29.696C102.359 29.696 105.047 30.4427 107.394 31.936C109.741 33.4293 111.597 35.4987 112.962 38.144C114.327 40.7467 115.01 43.7333 115.01 47.104C115.01 50.4747 114.327 53.4827 112.962 56.128C111.639 58.7733 109.805 60.864 107.458 62.4C105.111 63.8933 102.466 64.64 99.522 64.64ZM98.434 58.624C100.397 58.624 102.146 58.1333 103.682 57.152C105.218 56.128 106.434 54.7627 107.33 53.056C108.226 51.3067 108.674 49.3227 108.674 47.104C108.674 44.928 108.226 42.9867 107.33 41.28C106.477 39.5307 105.282 38.1653 103.746 37.184C102.21 36.2027 100.439 35.712 98.434 35.712C96.4287 35.712 94.658 36.2027 93.122 37.184C91.586 38.1653 90.37 39.5307 89.474 41.28C88.578 42.9867 88.13 44.928 88.13 47.104C88.13 49.3227 88.578 51.3067 89.474 53.056C90.37 54.7627 91.586 56.128 93.122 57.152C94.658 58.1333 96.4287 58.624 98.434 58.624Z" fill="#FFFCFC"/>
<path d="M118.763 64L131.627 30.4H135.899L148.667 64H144.587L136.379 42.208C136.155 41.6 135.899 40.896 135.611 40.096C135.355 39.264 135.067 38.416 134.747 37.552C134.459 36.656 134.171 35.792 133.883 34.96C133.627 34.128 133.387 33.392 133.163 32.752H134.123C133.867 33.552 133.595 34.368 133.307 35.2C133.051 36 132.779 36.816 132.491 37.648C132.203 38.448 131.915 39.248 131.627 40.048C131.339 40.848 131.051 41.648 130.763 42.448L122.603 64H118.763ZM124.235 54.736L125.627 51.088H141.515L143.051 54.736H124.235ZM158.749 64L148.189 38.944H152.173L160.525 59.44L159.565 59.968L168.733 38.944H172.573L161.341 64H158.749ZM187.138 64.48C184.642 64.48 182.418 63.936 180.466 62.848C178.546 61.76 177.042 60.24 175.954 58.288C174.866 56.336 174.322 54.096 174.322 51.568C174.322 49.616 174.626 47.856 175.234 46.288C175.842 44.688 176.69 43.296 177.778 42.112C178.898 40.928 180.226 40.016 181.762 39.376C183.298 38.704 184.962 38.368 186.754 38.368C188.45 38.368 189.986 38.672 191.362 39.28C192.77 39.888 193.97 40.736 194.962 41.824C195.986 42.88 196.754 44.144 197.266 45.616C197.778 47.088 198.002 48.704 197.938 50.464L197.89 52.144H177.01L176.482 49.12H195.154L194.29 49.936V48.784C194.226 47.632 193.89 46.528 193.282 45.472C192.674 44.384 191.81 43.504 190.69 42.832C189.602 42.16 188.29 41.824 186.754 41.824C184.962 41.824 183.41 42.192 182.098 42.928C180.786 43.632 179.778 44.688 179.074 46.096C178.37 47.504 178.018 49.248 178.018 51.328C178.018 53.312 178.402 55.04 179.17 56.512C179.938 57.952 181.026 59.072 182.434 59.872C183.874 60.672 185.602 61.072 187.618 61.072C188.802 61.072 189.97 60.88 191.122 60.496C192.306 60.08 193.602 59.28 195.01 58.096L196.882 60.688C196.146 61.424 195.266 62.08 194.242 62.656C193.218 63.2 192.098 63.648 190.882 64C189.666 64.32 188.418 64.48 187.138 64.48ZM203.051 64V38.944H206.603L206.747 44.176L206.171 44.416C206.491 43.328 207.115 42.336 208.043 41.44C208.971 40.544 210.075 39.824 211.355 39.28C212.667 38.704 214.011 38.416 215.387 38.416C217.243 38.416 218.795 38.784 220.043 39.52C221.291 40.256 222.235 41.392 222.875 42.928C223.515 44.464 223.835 46.416 223.835 48.784V64H220.187V48.976C220.187 47.312 219.963 45.952 219.515 44.896C219.099 43.808 218.443 43.008 217.547 42.496C216.651 41.984 215.547 41.744 214.235 41.776C213.147 41.776 212.139 41.968 211.211 42.352C210.283 42.704 209.483 43.2 208.811 43.84C208.139 44.48 207.611 45.216 207.227 46.048C206.843 46.88 206.651 47.776 206.651 48.736V64H204.875C204.651 64 204.395 64 204.107 64C203.819 64 203.467 64 203.051 64ZM239.587 64.48C237.667 64.48 236.035 64.096 234.691 63.328C233.379 62.528 232.371 61.376 231.667 59.872C230.995 58.368 230.659 56.496 230.659 54.256V38.944H234.307V53.536C234.307 55.232 234.531 56.656 234.979 57.808C235.459 58.928 236.163 59.776 237.091 60.352C238.051 60.928 239.219 61.216 240.595 61.216C241.651 61.216 242.627 61.04 243.523 60.688C244.419 60.304 245.203 59.792 245.875 59.152C246.547 58.512 247.075 57.76 247.459 56.896C247.843 56.032 248.035 55.12 248.035 54.16V38.944H251.635V64H248.083L247.939 58.72L248.515 58.432C248.131 59.552 247.491 60.576 246.595 61.504C245.699 62.4 244.627 63.12 243.379 63.664C242.163 64.208 240.899 64.48 239.587 64.48ZM269.685 64.48C267.189 64.48 264.965 63.936 263.013 62.848C261.093 61.76 259.589 60.24 258.501 58.288C257.413 56.336 256.869 54.096 256.869 51.568C256.869 49.616 257.173 47.856 257.781 46.288C258.389 44.688 259.237 43.296 260.325 42.112C261.445 40.928 262.773 40.016 264.309 39.376C265.845 38.704 267.509 38.368 269.301 38.368C270.997 38.368 272.533 38.672 273.909 39.28C275.317 39.888 276.517 40.736 277.509 41.824C278.533 42.88 279.301 44.144 279.813 45.616C280.325 47.088 280.549 48.704 280.485 50.464L280.437 52.144H259.557L259.029 49.12H277.701L276.837 49.936V48.784C276.773 47.632 276.437 46.528 275.829 45.472C275.221 44.384 274.357 43.504 273.237 42.832C272.149 42.16 270.837 41.824 269.301 41.824C267.509 41.824 265.957 42.192 264.645 42.928C263.333 43.632 262.325 44.688 261.621 46.096C260.917 47.504 260.565 49.248 260.565 51.328C260.565 53.312 260.949 55.04 261.717 56.512C262.485 57.952 263.573 59.072 264.981 59.872C266.421 60.672 268.149 61.072 270.165 61.072C271.349 61.072 272.517 60.88 273.669 60.496C274.853 60.08 276.149 59.28 277.557 58.096L279.429 60.688C278.693 61.424 277.813 62.08 276.789 62.656C275.765 63.2 274.645 63.648 273.429 64C272.213 64.32 270.965 64.48 269.685 64.48Z" fill="white"/>
</svg>
