<svg width="485" height="45" viewBox="0 0 485 45" fill="none" xmlns="http://www.w3.org/2000/svg">
<path d="M0 19H24" stroke="#4F3DCD" stroke-width="3"/>
<path d="M46.704 14.87C46.0467 16.094 45.616 17.0573 45.412 17.76C45.2307 18.4627 45.072 19.3013 44.936 20.276C45.1627 20.276 45.5367 20.276 46.058 20.276C46.5793 20.2533 46.9193 20.2307 47.078 20.208L49.016 19.8C49.492 19.6867 49.9113 19.596 50.274 19.528C50.6367 19.4373 51.3053 19.3127 52.28 19.154C52.7107 19.086 53.1753 19.0407 53.674 19.018C54.1727 18.9953 54.5013 18.984 54.66 18.984C55.204 18.984 55.612 18.9727 55.884 18.95C56.2693 18.95 56.5413 19.018 56.7 19.154C57.3573 19.7207 57.686 20.208 57.686 20.616C57.686 20.888 57.584 21.0807 57.38 21.194C57.176 21.3073 56.8587 21.432 56.428 21.568L53.266 22.248L46.67 24.05C46.5567 24.0727 46.4433 24.118 46.33 24.186C46.2393 24.2313 46.1373 24.2653 46.024 24.288C45.2987 24.4467 44.8113 24.5827 44.562 24.696C44.3353 24.7867 44.188 24.9567 44.12 25.206C44.0747 25.4553 44.052 25.9427 44.052 26.668V28.028C44.052 28.64 44.0293 29.1047 43.984 29.422C43.848 30.5553 43.4287 31.122 42.726 31.122C42.3407 31.122 41.8987 30.9747 41.4 30.68C40.8333 30.34 40.4027 29.966 40.108 29.558C39.836 29.1273 39.7 28.6287 39.7 28.062C39.7 27.858 39.7113 27.6993 39.734 27.586C39.9153 25.9993 40.04 24.8207 40.108 24.05C40.176 23.3927 40.2667 22.5653 40.38 21.568C40.4933 20.548 40.6407 19.3693 40.822 18.032C41.1167 15.924 41.8533 14.0653 43.032 12.456C44.2333 10.8467 45.8087 9.37333 47.758 8.036C49.6847 6.69867 51.6113 5.84867 53.538 5.486C53.9233 5.39533 54.3653 5.35 54.864 5.35C56.36 5.35 57.6407 5.91667 58.706 7.05C59.1367 7.48067 59.352 7.85467 59.352 8.172C59.352 8.308 59.2953 8.48933 59.182 8.716C58.8873 9.192 58.4793 9.43 57.958 9.43C57.7767 9.43 57.584 9.396 57.38 9.328C57.2667 9.28267 57.1193 9.23733 56.938 9.192C56.7793 9.14667 56.6547 9.10133 56.564 9.056C56.1787 8.784 55.7367 8.648 55.238 8.648C54.558 8.444 53.7987 8.56867 52.96 9.022C52.1213 9.47533 50.9767 10.2687 49.526 11.402C48.7553 11.9687 48.0867 12.6147 47.52 13.34L46.704 14.87ZM65.9427 24.696C65.716 24.832 65.3874 24.9 64.9567 24.9C64.798 24.9 64.6054 24.8887 64.3787 24.866C64.152 24.8433 63.9594 24.8433 63.8007 24.866C63.982 25.614 64.4127 26.226 65.0927 26.702C65.7727 27.1553 66.532 27.382 67.3707 27.382C68.096 27.382 68.742 27.2233 69.3087 26.906C70.1474 26.4753 70.8727 25.9653 71.4847 25.376C71.9154 24.9453 72.3234 24.73 72.7087 24.73C72.958 24.73 73.1734 24.8547 73.3547 25.104C73.536 25.3987 73.6267 25.7613 73.6267 26.192C73.6267 26.6453 73.536 26.9967 73.3547 27.246C72.7654 28.1527 71.9947 28.776 71.0427 29.116C70.1134 29.456 69.0254 29.626 67.7787 29.626C66.4867 29.626 65.24 29.3427 64.0387 28.776C62.8374 28.2093 61.806 27.4387 60.9447 26.464C60.106 25.4667 59.5507 24.3673 59.2787 23.166C59.0974 22.4633 59.0067 21.772 59.0067 21.092C59.0067 20.0267 59.3014 19.1653 59.8907 18.508C60.5027 17.8507 61.4774 17.2273 62.8147 16.638C64.0387 16.1167 65.172 15.856 66.2147 15.856C66.9627 15.856 67.688 15.9693 68.3907 16.196C70.5667 16.876 71.6547 17.8053 71.6547 18.984C71.6547 19.732 71.2127 20.6387 70.3287 21.704C69.898 22.2027 69.388 22.6447 68.7987 23.03C68.2094 23.4153 67.6314 23.7667 67.0647 24.084C66.5207 24.3787 66.1467 24.5827 65.9427 24.696ZM67.3707 18.406C67.348 18.2927 67.2574 18.202 67.0987 18.134C66.9627 18.0433 66.8834 17.9867 66.8607 17.964C66.2487 17.9187 65.6254 18.1 64.9907 18.508C64.356 18.8933 63.8234 19.392 63.3927 20.004C62.9847 20.616 62.7807 21.2053 62.7807 21.772L62.8147 22.044C62.8374 22.1347 62.9507 22.248 63.1547 22.384C63.3814 22.52 63.5174 22.5653 63.5627 22.52C65.172 21.3187 66.3847 20.3553 67.2007 19.63C67.3367 19.494 67.4047 19.2447 67.4047 18.882C67.4047 18.6553 67.3934 18.4967 67.3707 18.406ZM83.411 14.904C84.4537 14.904 85.3037 15.21 85.961 15.822C86.641 16.4113 87.1057 17.2047 87.355 18.202C87.491 18.746 87.5363 19.358 87.491 20.038C87.4683 20.4233 87.4457 20.9673 87.423 21.67C87.4003 22.2593 87.321 23.132 87.185 24.288C87.049 25.4213 86.9697 26.2713 86.947 26.838C86.9243 27.246 86.913 27.8467 86.913 28.64L86.947 31.394C86.5163 31.5753 86.131 31.666 85.791 31.666C85.451 31.666 85.0997 31.5527 84.737 31.326C84.4877 31.1447 84.3177 31.0313 84.227 30.986C84.159 30.9407 84.057 30.748 83.921 30.408L83.649 29.762L83.479 28.98C82.2097 29.252 81.4617 29.4107 81.235 29.456C80.9177 29.4787 80.6683 29.49 80.487 29.49C79.6483 29.49 78.8323 29.286 78.039 28.878C77.2683 28.47 76.645 27.9033 76.169 27.178C75.7157 26.4527 75.4777 25.6707 75.455 24.832C75.4323 24.0387 75.7157 23.404 76.305 22.928C77.5517 21.9307 78.7643 21.432 79.943 21.432C80.5323 21.432 81.1557 21.568 81.813 21.84C82.153 21.976 82.8783 22.282 83.989 22.758L84.125 21.806C84.261 20.99 84.329 20.3327 84.329 19.834C84.329 19.086 84.159 18.3833 83.819 17.726C83.479 17.6127 83.2297 17.5787 83.071 17.624C82.4817 17.7147 81.8923 17.8393 81.303 17.998C80.7137 18.134 79.909 18.202 78.889 18.202C78.617 18.202 78.345 18.1 78.073 17.896C77.801 17.6693 77.6763 17.42 77.699 17.148C77.767 16.7853 77.971 16.3773 78.311 15.924C78.515 15.6747 78.7983 15.5273 79.161 15.482C79.5917 15.414 79.943 15.3687 80.215 15.346C81.6203 15.0513 82.6857 14.904 83.411 14.904ZM80.521 26.702C81.065 26.5433 81.5183 26.362 81.881 26.158C82.2437 25.9313 82.561 25.6027 82.833 25.172C82.017 24.5373 81.3937 24.0953 80.963 23.846C80.5323 23.5967 80.113 23.472 79.705 23.472C79.5463 23.472 79.3537 23.506 79.127 23.574C78.9003 23.642 78.7303 23.744 78.617 23.88C78.413 24.1293 78.311 24.4807 78.311 24.934C78.311 25.342 78.3903 25.6933 78.549 25.988C78.7303 26.2373 78.957 26.43 79.229 26.566C79.501 26.702 79.7843 26.77 80.079 26.77C80.1697 26.77 80.317 26.7473 80.521 26.702ZM98.8164 12.966C98.9298 12.9207 99.1791 12.8867 99.5644 12.864C99.9724 12.8187 100.335 12.796 100.652 12.796C101.287 12.796 101.865 13.1927 102.386 13.986L101.944 14.326C101.423 14.7113 100.675 15.006 99.7004 15.21C98.8391 15.6407 98.1931 16.0033 97.7624 16.298C97.3544 16.5927 97.0484 16.9213 96.8444 17.284C96.6631 17.6467 96.5724 18.1113 96.5724 18.678C96.5724 18.95 96.6404 19.6527 96.7764 20.786L96.9464 22.214C97.1278 23.9593 97.2864 25.24 97.4224 26.056C97.4678 26.3507 97.5584 26.702 97.6944 27.11C97.8531 27.4953 98.0118 27.722 98.1704 27.79C98.3291 27.858 98.6464 27.7447 99.1224 27.45C100.029 26.362 100.618 25.6027 100.89 25.172C100.958 25.0587 101.072 24.866 101.23 24.594C101.389 24.322 101.548 24.118 101.706 23.982C101.865 23.8233 102.058 23.744 102.284 23.744C102.33 23.744 102.443 23.7667 102.624 23.812C102.987 23.9253 103.27 24.0953 103.474 24.322C103.701 24.5487 103.814 24.8773 103.814 25.308C103.814 25.512 103.803 25.6593 103.78 25.75C103.644 26.6567 103.327 27.4727 102.828 28.198C102.33 28.9233 101.672 29.6373 100.856 30.34C100.539 30.6347 100.018 30.782 99.2924 30.782C98.4991 30.782 97.7171 30.6007 96.9464 30.238C96.1758 29.898 95.6544 29.4447 95.3824 28.878C94.6798 27.3593 94.0224 25.4213 93.4104 23.064C93.2518 22.4067 93.1271 21.364 93.0364 19.936L92.9344 18.678C92.8891 18.1567 92.8891 17.76 92.9344 17.488C92.9798 17.1933 92.5378 17.012 91.6084 16.944C91.2684 16.9213 91.0984 16.6947 91.0984 16.264C91.3251 15.5387 91.6764 15.108 92.1524 14.972C92.6058 14.836 92.8891 14.5527 93.0024 14.122C93.1158 13.6687 93.2064 13.204 93.2744 12.728C93.4784 11.2547 93.5238 9.61133 93.4104 7.798C93.3651 6.93667 93.6258 6.438 94.1924 6.302L94.4984 6.336C94.6118 6.35867 94.8724 6.404 95.2804 6.472C95.6884 6.51733 96.0511 6.61933 96.3684 6.778C97.1618 7.20867 97.5584 7.968 97.5584 9.056C97.5584 9.50933 97.4678 10.0987 97.2864 10.824C97.2638 10.9373 97.2298 11.0393 97.1844 11.13C97.1391 11.2207 97.1051 11.3227 97.0824 11.436C97.0144 11.776 96.9804 12.0593 96.9804 12.286C96.7764 12.966 96.9351 13.306 97.4564 13.306C97.6378 13.306 98.0911 13.1927 98.8164 12.966ZM110.126 15.72C110.693 15.8787 111.089 16.0713 111.316 16.298C111.565 16.5247 111.69 16.8307 111.69 17.216C111.69 17.3973 111.656 17.6353 111.588 17.93C111.339 18.95 111.203 19.97 111.18 20.99C111.157 22.146 111.339 23.2113 111.724 24.186C111.86 24.526 111.985 24.7753 112.098 24.934C112.234 25.07 112.393 25.138 112.574 25.138C112.801 25.138 113.095 24.934 113.458 24.526C114.297 23.5287 114.92 22.5313 115.328 21.534C115.736 20.5367 115.985 19.5053 116.076 18.44C116.144 17.7373 116.257 17.2953 116.416 17.114C116.507 17.0233 116.654 16.9667 116.858 16.944C117.062 16.9213 117.357 16.91 117.742 16.91C118.354 16.9553 118.773 17.012 119 17.08C119.249 17.148 119.419 17.2613 119.51 17.42C119.601 17.5787 119.646 17.8393 119.646 18.202L119.612 19.8C119.612 20.14 119.601 20.6387 119.578 21.296C119.51 23.336 119.453 24.8547 119.408 25.852C119.385 26.6453 119.147 27.6427 118.694 28.844C118.649 28.912 118.524 29.014 118.32 29.15C118.116 29.2633 117.935 29.3313 117.776 29.354C117.731 29.354 117.629 29.286 117.47 29.15C117.334 28.9913 117.232 28.8553 117.164 28.742C117.005 28.3793 116.824 27.892 116.62 27.28L116.348 26.634L116.28 26.43L116.178 26.532L115.634 26.872C115.362 27.0987 115.067 27.28 114.75 27.416C114.229 27.7333 113.605 27.892 112.88 27.892C111.973 27.892 111.112 27.6427 110.296 27.144C109.48 26.6227 108.834 25.92 108.358 25.036C107.587 23.676 107.202 22.1007 107.202 20.31C107.202 19.4033 107.327 18.2587 107.576 16.876C107.621 16.536 107.837 16.2413 108.222 15.992C108.562 15.7427 108.959 15.618 109.412 15.618C109.639 15.618 109.877 15.652 110.126 15.72ZM128.491 15.584C128.559 15.8107 128.57 16.162 128.525 16.638L128.117 20.65C128.23 20.5593 128.4 20.242 128.627 19.698C128.853 19.1313 129.069 18.678 129.273 18.338C129.477 17.9753 129.635 17.7373 129.749 17.624C130.814 16.604 132.015 15.992 133.353 15.788C134.69 15.584 136.163 15.4933 137.773 15.516C137.931 15.516 138.101 15.584 138.283 15.72C138.487 15.8333 138.589 15.9353 138.589 16.026C138.589 16.094 138.521 16.2187 138.385 16.4C138.249 16.5587 138.124 16.6607 138.011 16.706C136.651 17.1593 135.449 17.6807 134.407 18.27C133.387 18.8593 132.503 19.63 131.755 20.582C129.987 22.826 128.967 25.138 128.695 27.518C128.627 28.1527 128.434 28.5833 128.117 28.81C127.799 29.014 127.357 29.116 126.791 29.116C126.156 29.116 125.589 28.844 125.091 28.3C124.592 27.756 124.343 27.1553 124.343 26.498C124.365 24.0953 124.377 20.4913 124.377 15.686C124.377 15.0287 124.524 14.5753 124.819 14.326C125.113 14.054 125.646 13.918 126.417 13.918C126.983 13.918 127.459 14.0767 127.845 14.394C128.253 14.7113 128.468 15.108 128.491 15.584ZM144.189 16.74C144.393 16.7173 144.563 16.7173 144.699 16.74C144.835 16.74 144.96 16.74 145.073 16.74C145.232 16.7173 145.47 16.706 145.787 16.706C147.329 16.706 148.847 17.148 150.343 18.032C151.001 18.44 151.329 18.8707 151.329 19.324C151.329 19.8227 150.989 20.2647 150.309 20.65C149.743 20.99 149.153 21.3867 148.541 21.84C147.453 22.5653 146.524 23.132 145.753 23.54C145.005 23.948 144.178 24.2313 143.271 24.39C143.135 24.4353 142.988 24.56 142.829 24.764C142.693 24.9453 142.637 25.0813 142.659 25.172C142.705 25.308 142.784 25.5913 142.897 26.022C143.011 26.43 143.135 26.7813 143.271 27.076C143.43 27.348 143.611 27.5747 143.815 27.756C144.042 27.9373 144.382 28.028 144.835 28.028C145.289 28.028 145.708 27.96 146.093 27.824C147.453 27.1893 148.745 26.396 149.969 25.444C150.332 25.1947 150.649 25.07 150.921 25.07C151.261 25.07 151.624 25.2513 152.009 25.614C152.281 25.8633 152.417 26.124 152.417 26.396C152.417 26.6907 152.202 27.0533 151.771 27.484C149.845 29.3653 147.793 30.306 145.617 30.306C145.028 30.306 144.303 30.1927 143.441 29.966C141.991 29.6033 140.88 28.7987 140.109 27.552C139.339 26.3053 138.953 24.8773 138.953 23.268C138.953 22.7693 138.987 22.2933 139.055 21.84C139.078 21.6813 139.123 21.3527 139.191 20.854C139.282 20.3327 139.418 19.902 139.599 19.562C140.461 17.862 141.991 16.9213 144.189 16.74ZM146.161 19.188C145.753 19.052 145.391 18.984 145.073 18.984C144.552 18.984 144.144 19.1427 143.849 19.46C143.555 19.7773 143.317 20.2533 143.135 20.888C143.679 20.956 144.257 20.82 144.869 20.48C145.504 20.1173 145.935 19.6867 146.161 19.188ZM161.718 25.988C161.446 27.0987 160.993 27.96 160.358 28.572C159.723 29.184 158.975 29.49 158.114 29.49C157.003 29.49 155.893 29.014 154.782 28.062C155.643 27.6087 156.187 27.3367 156.414 27.246C157.003 26.974 157.468 26.6 157.808 26.124C158.171 25.648 158.352 25.1153 158.352 24.526C158.352 24.322 158.341 24.1633 158.318 24.05C158.25 23.5513 158.137 23.0187 157.978 22.452C157.819 21.8627 157.717 21.4773 157.672 21.296C157.559 20.9107 157.411 20.3327 157.23 19.562C157.094 18.9953 156.969 18.4173 156.856 17.828C156.743 17.2387 156.686 16.7173 156.686 16.264C156.686 15.516 156.845 14.836 157.162 14.224C157.502 13.5893 158.069 12.9887 158.862 12.422C159.202 12.1727 159.587 11.9573 160.018 11.776C160.471 11.5947 160.902 11.4927 161.31 11.47C161.605 11.4247 161.933 11.4813 162.296 11.64C162.681 11.7987 162.919 11.9913 163.01 12.218C163.101 12.422 163.067 12.7167 162.908 13.102C162.749 13.4647 162.557 13.7367 162.33 13.918C161.015 14.8927 160.403 15.9807 160.494 17.182C160.539 17.862 160.721 18.8593 161.038 20.174C161.265 21.0127 161.423 21.738 161.514 22.35C161.537 22.5313 161.593 22.894 161.684 23.438C161.797 23.982 161.854 24.4807 161.854 24.934C161.854 25.342 161.809 25.6933 161.718 25.988Z" fill="#4F3DCD"/>
</svg>
