<svg width="196" height="54" viewBox="0 0 196 54" fill="none" xmlns="http://www.w3.org/2000/svg">
<path d="M11.008 43.43C10.0333 43.43 9.10167 43.301 8.213 43.043C7.32433 42.785 6.493 42.4123 5.719 41.925C4.97367 41.4377 4.3 40.8643 3.698 40.205C3.096 39.517 2.58 38.7717 2.15 37.969L5.074 34.916C5.676 35.776 6.22067 36.464 6.708 36.98C7.224 37.496 7.71133 37.8973 8.17 38.184C8.62867 38.4707 9.08733 38.6713 9.546 38.786C10.0047 38.872 10.492 38.915 11.008 38.915C12.04 38.915 12.943 38.6857 13.717 38.227C14.491 37.7397 15.093 37.0803 15.523 36.249C15.953 35.4177 16.168 34.4717 16.168 33.411V17.2H10.664V12.9H25.456V17.2H20.812V33.841C20.812 35.217 20.5683 36.4927 20.081 37.668C19.6223 38.8147 18.9487 39.818 18.06 40.678C17.2 41.538 16.168 42.2117 14.964 42.699C13.7887 43.1863 12.47 43.43 11.008 43.43ZM38.6913 43.43C36.4839 43.43 34.5059 42.9283 32.7573 41.925C31.0373 40.893 29.6756 39.5027 28.6723 37.754C27.6689 35.9767 27.1673 33.9557 27.1673 31.691C27.1673 29.4263 27.6689 27.4197 28.6723 25.671C29.6756 23.8937 31.0373 22.5033 32.7573 21.5C34.5059 20.468 36.4839 19.952 38.6913 19.952C40.8699 19.952 42.8193 20.468 44.5393 21.5C46.2879 22.5033 47.6639 23.8937 48.6673 25.671C49.6706 27.4197 50.1723 29.4263 50.1723 31.691C50.1723 33.9557 49.6706 35.9767 48.6673 37.754C47.6639 39.5027 46.2879 40.893 44.5393 41.925C42.8193 42.9283 40.8699 43.43 38.6913 43.43ZM38.6913 39.388C40.0386 39.388 41.2426 39.0583 42.3033 38.399C43.3639 37.711 44.1953 36.7937 44.7973 35.647C45.3993 34.4717 45.6859 33.153 45.6573 31.691C45.6859 30.2003 45.3993 28.8817 44.7973 27.735C44.1953 26.5597 43.3639 25.6423 42.3033 24.983C41.2426 24.3237 40.0386 23.994 38.6913 23.994C37.3439 23.994 36.1256 24.338 35.0363 25.026C33.9756 25.6853 33.1443 26.6027 32.5423 27.778C31.9403 28.9247 31.6536 30.229 31.6823 31.691C31.6536 33.153 31.9403 34.4717 32.5423 35.647C33.1443 36.7937 33.9756 37.711 35.0363 38.399C36.1256 39.0583 37.3439 39.388 38.6913 39.388ZM66.8663 43.43C65.8917 43.43 64.917 43.2723 63.9423 42.957C62.9963 42.6417 62.122 42.226 61.3193 41.71C60.5453 41.1653 59.886 40.5777 59.3413 39.947C58.8253 39.2877 58.4813 38.6283 58.3093 37.969L59.4273 37.367V42.871H54.9983V11.18H59.4273V25.585L58.7393 25.198C58.8827 24.5387 59.198 23.908 59.6853 23.306C60.1727 22.6753 60.789 22.1163 61.5343 21.629C62.3083 21.113 63.1397 20.7117 64.0283 20.425C64.917 20.1097 65.82 19.952 66.7373 19.952C68.7727 19.952 70.5787 20.4537 72.1553 21.457C73.732 22.4603 74.979 23.8507 75.8963 25.628C76.8137 27.3767 77.2723 29.3833 77.2723 31.648C77.2723 33.9127 76.8137 35.9337 75.8963 37.711C75.0077 39.4883 73.775 40.893 72.1983 41.925C70.6217 42.9283 68.8443 43.43 66.8663 43.43ZM66.1353 39.388C67.454 39.388 68.6293 39.0583 69.6613 38.399C70.6933 37.711 71.5103 36.7937 72.1123 35.647C72.7143 34.4717 73.0153 33.1387 73.0153 31.648C73.0153 30.186 72.7143 28.8817 72.1123 27.735C71.539 26.5597 70.7363 25.6423 69.7043 24.983C68.6723 24.3237 67.4827 23.994 66.1353 23.994C64.788 23.994 63.5983 24.3237 62.5663 24.983C61.5343 25.6423 60.7173 26.5597 60.1153 27.735C59.5133 28.8817 59.2123 30.186 59.2123 31.648C59.2123 33.1387 59.5133 34.4717 60.1153 35.647C60.7173 36.7937 61.5343 37.711 62.5663 38.399C63.5983 39.0583 64.788 39.388 66.1353 39.388Z" fill="black"/>
<path d="M79.8373 43L88.9493 19.2H91.9753L101.019 43H98.1293L92.3153 27.564C92.1566 27.1333 91.9753 26.6347 91.7713 26.068C91.59 25.4787 91.386 24.878 91.1593 24.266C90.9553 23.6313 90.7513 23.0193 90.5473 22.43C90.366 21.8407 90.196 21.3193 90.0373 20.866H90.7173C90.536 21.4327 90.3433 22.0107 90.1393 22.6C89.958 23.1667 89.7653 23.7447 89.5613 24.334C89.3573 24.9007 89.1533 25.4673 88.9493 26.034C88.7453 26.6007 88.5413 27.1673 88.3373 27.734L82.5573 43H79.8373ZM83.7133 36.438L84.6993 33.854H95.9533L97.0413 36.438H83.7133ZM108.161 43L100.681 25.252H103.503L109.419 39.77L108.739 40.144L115.233 25.252H117.953L109.997 43H108.161ZM128.27 43.34C126.502 43.34 124.926 42.9547 123.544 42.184C122.184 41.4133 121.118 40.3367 120.348 38.954C119.577 37.5713 119.192 35.9847 119.192 34.194C119.192 32.8113 119.407 31.5647 119.838 30.454C120.268 29.3207 120.869 28.3347 121.64 27.496C122.433 26.6573 123.374 26.0113 124.462 25.558C125.55 25.082 126.728 24.844 127.998 24.844C129.199 24.844 130.287 25.0593 131.262 25.49C132.259 25.9207 133.109 26.5213 133.812 27.292C134.537 28.04 135.081 28.9353 135.444 29.978C135.806 31.0207 135.965 32.1653 135.92 33.412L135.886 34.602H121.096L120.722 32.46H133.948L133.336 33.038V32.222C133.29 31.406 133.052 30.624 132.622 29.876C132.191 29.1053 131.579 28.482 130.786 28.006C130.015 27.53 129.086 27.292 127.998 27.292C126.728 27.292 125.629 27.5527 124.7 28.074C123.77 28.5727 123.056 29.3207 122.558 30.318C122.059 31.3153 121.81 32.5507 121.81 34.024C121.81 35.4293 122.082 36.6533 122.626 37.696C123.17 38.716 123.94 39.5093 124.938 40.076C125.958 40.6427 127.182 40.926 128.61 40.926C129.448 40.926 130.276 40.79 131.092 40.518C131.93 40.2233 132.848 39.6567 133.846 38.818L135.172 40.654C134.65 41.1753 134.027 41.64 133.302 42.048C132.576 42.4333 131.783 42.7507 130.922 43C130.06 43.2267 129.176 43.34 128.27 43.34ZM139.542 43V25.252H142.058L142.16 28.958L141.752 29.128C141.978 28.3573 142.42 27.6547 143.078 27.02C143.735 26.3853 144.517 25.8753 145.424 25.49C146.353 25.082 147.305 24.878 148.28 24.878C149.594 24.878 150.694 25.1387 151.578 25.66C152.462 26.1813 153.13 26.986 153.584 28.074C154.037 29.162 154.264 30.5447 154.264 32.222V43H151.68V32.358C151.68 31.1793 151.521 30.216 151.204 29.468C150.909 28.6973 150.444 28.1307 149.81 27.768C149.175 27.4053 148.393 27.2353 147.464 27.258C146.693 27.258 145.979 27.394 145.322 27.666C144.664 27.9153 144.098 28.2667 143.622 28.72C143.146 29.1733 142.772 29.6947 142.5 30.284C142.228 30.8733 142.092 31.508 142.092 32.188V43H140.834C140.675 43 140.494 43 140.29 43C140.086 43 139.836 43 139.542 43ZM165.421 43.34C164.061 43.34 162.905 43.068 161.953 42.524C161.024 41.9573 160.31 41.1413 159.811 40.076C159.335 39.0107 159.097 37.6847 159.097 36.098V25.252H161.681V35.588C161.681 36.7893 161.84 37.798 162.157 38.614C162.497 39.4073 162.996 40.008 163.653 40.416C164.333 40.824 165.161 41.028 166.135 41.028C166.883 41.028 167.575 40.9033 168.209 40.654C168.844 40.382 169.399 40.0193 169.875 39.566C170.351 39.1127 170.725 38.58 170.997 37.968C171.269 37.356 171.405 36.71 171.405 36.03V25.252H173.955V43H171.439L171.337 39.26L171.745 39.056C171.473 39.8493 171.02 40.5747 170.385 41.232C169.751 41.8667 168.991 42.3767 168.107 42.762C167.246 43.1473 166.351 43.34 165.421 43.34ZM186.74 43.34C184.972 43.34 183.397 42.9547 182.014 42.184C180.654 41.4133 179.589 40.3367 178.818 38.954C178.048 37.5713 177.662 35.9847 177.662 34.194C177.662 32.8113 177.878 31.5647 178.308 30.454C178.739 29.3207 179.34 28.3347 180.11 27.496C180.904 26.6573 181.844 26.0113 182.932 25.558C184.02 25.082 185.199 24.844 186.468 24.844C187.67 24.844 188.758 25.0593 189.732 25.49C190.73 25.9207 191.58 26.5213 192.282 27.292C193.008 28.04 193.552 28.9353 193.914 29.978C194.277 31.0207 194.436 32.1653 194.39 33.412L194.356 34.602H179.566L179.192 32.46H192.418L191.806 33.038V32.222C191.761 31.406 191.523 30.624 191.092 29.876C190.662 29.1053 190.05 28.482 189.256 28.006C188.486 27.53 187.556 27.292 186.468 27.292C185.199 27.292 184.1 27.5527 183.17 28.074C182.241 28.5727 181.527 29.3207 181.028 30.318C180.53 31.3153 180.28 32.5507 180.28 34.024C180.28 35.4293 180.552 36.6533 181.096 37.696C181.64 38.716 182.411 39.5093 183.408 40.076C184.428 40.6427 185.652 40.926 187.08 40.926C187.919 40.926 188.746 40.79 189.562 40.518C190.401 40.2233 191.319 39.6567 192.316 38.818L193.642 40.654C193.121 41.1753 192.498 41.64 191.772 42.048C191.047 42.4333 190.254 42.7507 189.392 43C188.531 43.2267 187.647 43.34 186.74 43.34Z" fill="#5B4E4E"/>
</svg>
