<svg width="36" height="36" viewBox="0 0 36 36" fill="none" xmlns="http://www.w3.org/2000/svg">
<path d="M13.3922 0.9375H17.125C17.4731 0.9375 17.8069 1.07578 18.0531 1.32192C18.2992 1.56806 18.4375 1.9019 18.4375 2.25C18.4375 2.5981 18.2992 2.93194 18.0531 3.17808C17.8069 3.42422 17.4731 3.5625 17.125 3.5625H13.45C11.469 3.5625 10.0603 3.5625 8.9595 3.6535C7.8745 3.741 7.20075 3.91075 6.667 4.182C5.59711 4.72723 4.72723 5.59711 4.182 6.667C3.91075 7.20075 3.74275 7.8745 3.6535 8.9595C3.56425 10.062 3.5625 11.469 3.5625 13.45V22.55C3.5625 24.5328 3.5625 25.9398 3.6535 27.0405C3.741 28.1255 3.91075 28.7992 4.182 29.333C4.72723 30.4029 5.59711 31.2728 6.667 31.818C7.20075 32.0893 7.8745 32.2572 8.9595 32.3465C10.062 32.4357 11.469 32.4375 13.45 32.4375H22.55C24.5328 32.4375 25.9398 32.4375 27.0405 32.3465C28.1255 32.259 28.7992 32.0893 29.333 31.818C30.4029 31.2728 31.2728 30.4029 31.818 29.333C32.0893 28.7992 32.2572 28.1255 32.3465 27.0405C32.4357 25.938 32.4375 24.531 32.4375 22.55V18.875C32.4375 18.5269 32.5758 18.1931 32.8219 17.9469C33.0681 17.7008 33.4019 17.5625 33.75 17.5625C34.0981 17.5625 34.4319 17.7008 34.6781 17.9469C34.9242 18.1931 35.0625 18.5269 35.0625 18.875V22.6077C35.0625 24.5188 35.0625 26.0343 34.9628 27.254C34.8613 28.5035 34.6478 29.5588 34.1577 30.5247C33.3605 32.0884 32.0887 33.3595 30.5247 34.156C29.5588 34.6478 28.5035 34.8613 27.254 34.9628C26.0343 35.0625 24.5188 35.0625 22.6077 35.0625H13.3922C11.4812 35.0625 9.96575 35.0625 8.746 34.9628C7.4965 34.8613 6.44125 34.6478 5.477 34.1577C3.91274 33.3608 2.64097 32.089 1.844 30.5247C1.35225 29.5588 1.13875 28.5035 1.03725 27.254C0.9375 26.0343 0.9375 24.5188 0.9375 22.6077V13.3922C0.9375 11.4812 0.9375 9.96575 1.03725 8.746C1.13875 7.4965 1.35225 6.44125 1.84225 5.477C2.63968 3.91248 3.91209 2.64068 5.477 1.844C6.4395 1.35225 7.4965 1.13875 8.746 1.03725C9.96575 0.9375 11.4812 0.9375 13.3922 0.9375ZM22.8125 7.0625C22.8125 6.25815 22.9709 5.46168 23.2787 4.71856C23.5865 3.97544 24.0377 3.30023 24.6065 2.73147C25.1752 2.16271 25.8504 1.71155 26.5936 1.40374C27.3367 1.09593 28.1332 0.9375 28.9375 0.9375C29.7418 0.9375 30.5383 1.09593 31.2814 1.40374C32.0246 1.71155 32.6998 2.16271 33.2685 2.73147C33.8373 3.30023 34.2885 3.97544 34.5963 4.71856C34.9041 5.46168 35.0625 6.25815 35.0625 7.0625C35.0625 8.68695 34.4172 10.2449 33.2685 11.3935C32.1199 12.5422 30.562 13.1875 28.9375 13.1875C27.313 13.1875 25.7551 12.5422 24.6065 11.3935C23.4578 10.2449 22.8125 8.68695 22.8125 7.0625Z" fill="#4C4848"/>
</svg>
