<svg width="42" height="42" viewBox="0 0 42 42" fill="none" xmlns="http://www.w3.org/2000/svg">
<path d="M16.3922 3.9375H20.125C20.4731 3.9375 20.8069 4.07578 21.0531 4.32192C21.2992 4.56806 21.4375 4.9019 21.4375 5.25C21.4375 5.5981 21.2992 5.93194 21.0531 6.17808C20.8069 6.42422 20.4731 6.5625 20.125 6.5625H16.45C14.469 6.5625 13.0603 6.5625 11.9595 6.6535C10.8745 6.741 10.2008 6.91075 9.667 7.182C8.59711 7.72723 7.72723 8.59711 7.182 9.667C6.91075 10.2008 6.74275 10.8745 6.6535 11.9595C6.56425 13.062 6.5625 14.469 6.5625 16.45V25.55C6.5625 27.5328 6.5625 28.9398 6.6535 30.0405C6.741 31.1255 6.91075 31.7992 7.182 32.333C7.72723 33.4029 8.59711 34.2728 9.667 34.818C10.2008 35.0893 10.8745 35.2572 11.9595 35.3465C13.062 35.4357 14.469 35.4375 16.45 35.4375H25.55C27.5328 35.4375 28.9398 35.4375 30.0405 35.3465C31.1255 35.259 31.7992 35.0893 32.333 34.818C33.4029 34.2728 34.2728 33.4029 34.818 32.333C35.0893 31.7992 35.2572 31.1255 35.3465 30.0405C35.4357 28.938 35.4375 27.531 35.4375 25.55V21.875C35.4375 21.5269 35.5758 21.1931 35.8219 20.9469C36.0681 20.7008 36.4019 20.5625 36.75 20.5625C37.0981 20.5625 37.4319 20.7008 37.6781 20.9469C37.9242 21.1931 38.0625 21.5269 38.0625 21.875V25.6077C38.0625 27.5188 38.0625 29.0343 37.9628 30.254C37.8613 31.5035 37.6478 32.5588 37.1577 33.5247C36.3605 35.0884 35.0887 36.3595 33.5247 37.156C32.5588 37.6478 31.5035 37.8613 30.254 37.9628C29.0343 38.0625 27.5188 38.0625 25.6077 38.0625H16.3922C14.4812 38.0625 12.9657 38.0625 11.746 37.9628C10.4965 37.8613 9.44125 37.6478 8.477 37.1577C6.91274 36.3608 5.64097 35.089 4.844 33.5247C4.35225 32.5588 4.13875 31.5035 4.03725 30.254C3.9375 29.0343 3.9375 27.5188 3.9375 25.6077V16.3922C3.9375 14.4812 3.9375 12.9657 4.03725 11.746C4.13875 10.4965 4.35225 9.44125 4.84225 8.477C5.63968 6.91248 6.91209 5.64068 8.477 4.844C9.4395 4.35225 10.4965 4.13875 11.746 4.03725C12.9657 3.9375 14.4812 3.9375 16.3922 3.9375ZM25.8125 10.0625C25.8125 9.25815 25.9709 8.46168 26.2787 7.71856C26.5865 6.97544 27.0377 6.30023 27.6065 5.73147C28.1752 5.16271 28.8504 4.71155 29.5936 4.40374C30.3367 4.09593 31.1332 3.9375 31.9375 3.9375C32.7418 3.9375 33.5383 4.09593 34.2814 4.40374C35.0246 4.71155 35.6998 5.16271 36.2685 5.73147C36.8373 6.30023 37.2885 6.97544 37.5963 7.71856C37.9041 8.46168 38.0625 9.25815 38.0625 10.0625C38.0625 11.687 37.4172 13.2449 36.2685 14.3935C35.1199 15.5422 33.562 16.1875 31.9375 16.1875C30.313 16.1875 28.7551 15.5422 27.6065 14.3935C26.4578 13.2449 25.8125 11.687 25.8125 10.0625Z" fill="#4C4848"/>
<circle cx="31" cy="10" r="8" fill="#F49800"/>
</svg>
