<svg width="30" height="28" viewBox="0 0 30 28" fill="none" xmlns="http://www.w3.org/2000/svg">
<path d="M7.96792 5.85622C10.0948 4.55761 12.5254 3.87756 14.9997 3.88889C23.8696 3.88889 28.1731 12.0977 28.9367 13.7227C29.0211 13.9003 29.0211 14.0997 28.9367 14.2788C28.4417 15.3303 26.4672 19.135 22.7347 21.6902M17.8124 23.8222C16.8867 24.0153 15.9443 24.1121 14.9997 24.1111C6.12981 24.1111 1.82636 15.9023 1.06271 14.2773C1.02145 14.1905 1 14.0952 1 13.9986C1 13.9019 1.02145 13.8066 1.06271 13.7198C1.3707 13.0669 2.24405 11.3624 3.74885 9.55255M12.187 10.7702C12.9908 10.0322 14.0391 9.63831 15.1168 9.66929C16.1945 9.70027 17.2198 10.1538 17.9821 10.9368C18.7445 11.7198 19.1861 12.7728 19.2162 13.8797C19.2464 14.9866 18.8628 16.0633 18.1443 16.8889M2.34249 1L27.6569 27" stroke="#9E9E9E" stroke-width="2" stroke-linecap="round" stroke-linejoin="round"/>
</svg>
